# Blender 4.4.0
# www.blender.org
mtllib wall_door.mtl
o Wall_DoorFrame
v -8.000000 -1.500000 0.100000
v -8.000000 1.500000 0.100000
v -8.000000 -1.500000 -0.100000
v -8.000000 1.500000 -0.100000
v -4.000000 -1.500000 0.100000
v -4.000000 1.500000 0.100000
v -4.000000 -1.500000 -0.100000
v -4.000000 1.500000 -0.100000
v -6.600000 0.000000 -0.100000
v -6.600000 1.500000 -0.100000
v -5.400000 1.500000 -0.100000
v -5.400000 0.000000 -0.100000
v -6.600000 1.500000 0.100000
v -5.400000 0.000000 0.100000
v -5.400000 1.500000 0.100000
v -6.600000 0.000000 0.100000
v -6.700000 2.250000 0.125000
v -6.700000 2.350000 0.125000
v -6.700000 2.250000 -0.125000
v -6.700000 2.350000 -0.125000
v -5.300000 2.250000 0.125000
v -5.300000 2.350000 0.125000
v -5.300000 2.250000 -0.125000
v -5.300000 2.350000 -0.125000
vn -1.0000 -0.0000 -0.0000
vn -0.0000 -0.0000 -1.0000
vn 1.0000 -0.0000 -0.0000
vn -0.0000 -0.0000 1.0000
vn -0.0000 -1.0000 -0.0000
vn -0.0000 1.0000 -0.0000
vt 0.625000 0.000000
vt 0.375000 0.250000
vt 0.375000 0.000000
vt 0.375000 0.500000
vt 0.500000 0.412500
vt 0.625000 0.500000
vt 0.375000 0.750000
vt 0.375000 1.000000
vt 0.500000 0.912500
vt 0.125000 0.750000
vt 0.125000 0.500000
vt 0.875000 0.750000
vt 0.787500 0.500000
vt 0.875000 0.500000
vt 0.712500 0.750000
vt 0.625000 0.750000
vt 0.375000 0.208333
vt 0.545455 0.041667
vt 0.375000 0.041667
vt 0.375000 0.708333
vt 0.545455 0.541667
vt 0.375000 0.541667
vt 0.125000 0.708333
vt 0.625000 0.250000
vt 0.625000 0.412500
vt 0.625000 0.337500
vt 0.500000 0.337500
vt 0.625000 0.912500
vt 0.625000 1.000000
vt 0.625000 0.837500
vt 0.500000 0.837500
vt 0.787500 0.750000
vt 0.712500 0.500000
vt 0.545455 0.208333
vt 0.545455 0.708333
vt 0.125000 0.541667
s 0
usemtl Wall_Material
f 2/1/1 3/2/1 1/3/1
f 7/4/2 3/2/2 12/5/2
f 8/6/3 5/7/3 7/4/3
f 1/8/4 5/7/4 16/9/4
f 7/4/5 1/10/5 3/11/5
f 2/12/6 10/13/6 4/14/6
f 8/6/6 15/15/6 6/16/6
f 9/17/3 13/18/3 16/19/3
f 14/20/1 11/21/1 12/22/1
f 12/22/6 16/23/6 14/20/6
f 18/1/1 19/2/1 17/3/1
f 20/24/2 23/4/2 19/2/2
f 24/6/3 21/7/3 23/4/3
f 22/16/4 17/8/4 21/7/4
f 23/4/5 17/10/5 19/11/5
f 20/14/6 22/16/6 24/6/6
f 2/1/1 4/24/1 3/2/1
f 12/5/2 11/25/2 8/6/2
f 3/2/2 4/24/2 10/26/2
f 3/2/2 10/26/2 9/27/2
f 12/5/2 8/6/2 7/4/2
f 3/2/2 9/27/2 12/5/2
f 8/6/3 6/16/3 5/7/3
f 13/28/4 2/29/4 1/8/4
f 5/7/4 6/16/4 15/30/4
f 5/7/4 15/30/4 14/31/4
f 16/9/4 13/28/4 1/8/4
f 5/7/4 14/31/4 16/9/4
f 7/4/5 5/7/5 1/10/5
f 2/12/6 13/32/6 10/13/6
f 8/6/6 11/33/6 15/15/6
f 9/17/3 10/34/3 13/18/3
f 14/20/1 15/35/1 11/21/1
f 12/22/6 9/36/6 16/23/6
f 18/1/1 20/24/1 19/2/1
f 20/24/2 24/6/2 23/4/2
f 24/6/3 22/16/3 21/7/3
f 22/16/4 18/29/4 17/8/4
f 23/4/5 21/7/5 17/10/5
f 20/14/6 18/12/6 22/16/6
