# Blender 4.4.0
# www.blender.org
mtllib wall_corner.mtl
o Wall_Corner.001
v 4.000000 0.000000 2.000000
v 4.000000 3.000000 2.000000
v 4.000000 0.000000 -2.000000
v 4.000000 3.000000 -2.000000
v 8.000000 0.000000 2.000000
v 8.000000 3.000000 2.000000
v 8.000000 3.000000 -0.100000
v 8.000000 0.000000 -0.100000
v 6.100000 0.000000 -0.100000
v 6.100000 0.000000 -2.000000
v 6.100000 3.000000 -2.000000
v 6.100000 3.000000 -0.100000
vn -1.0000 -0.0000 -0.0000
vn -0.0000 -0.0000 -1.0000
vn 1.0000 -0.0000 -0.0000
vn -0.0000 -0.0000 1.0000
vn -0.0000 -1.0000 -0.0000
vn -0.0000 1.0000 -0.0000
vt 0.625000 0.000000
vt 0.375000 0.250000
vt 0.375000 0.000000
vt 0.625000 0.381250
vt 0.375000 0.381250
vt 0.375000 0.750000
vt 0.625000 0.618750
vt 0.625000 0.750000
vt 0.375000 1.000000
vt 0.125000 0.750000
vt 0.256250 0.500000
vt 0.256250 0.618750
vt 0.875000 0.500000
vt 0.743750 0.618750
vt 0.593750 0.000000
vt 0.406250 0.250000
vt 0.593750 0.250000
vt 0.406250 1.000000
vt 0.593750 0.750000
vt 0.406250 0.750000
vt 0.625000 0.250000
vt 0.375000 0.618750
vt 0.625000 1.000000
vt 0.125000 0.500000
vt 0.743750 0.500000
vt 0.875000 0.750000
vt 0.406250 0.000000
vt 0.593750 1.000000
s 0
usemtl Wall_Material
f 2/1/1 3/2/1 1/3/1
f 3/2/2 11/4/2 10/5/2
f 5/6/3 7/7/3 6/8/3
f 6/8/4 1/9/4 5/6/4
f 1/10/5 10/11/5 9/12/5
f 4/13/6 6/8/6 12/14/6
f 12/15/3 10/16/3 11/17/3
f 9/18/2 7/19/2 8/20/2
f 2/1/1 4/21/1 3/2/1
f 3/2/2 4/21/2 11/4/2
f 5/6/3 8/22/3 7/7/3
f 6/8/4 2/23/4 1/9/4
f 8/22/5 5/6/5 1/10/5
f 1/10/5 3/24/5 10/11/5
f 9/12/5 8/22/5 1/10/5
f 12/14/6 11/25/6 4/13/6
f 4/13/6 2/26/6 6/8/6
f 6/8/6 7/7/6 12/14/6
f 12/15/3 9/27/3 10/16/3
f 9/18/2 12/28/2 7/19/2
