{
	"asset":{
		"generator":"Khronos glTF Blender I/O v4.4.55",
		"version":"2.0"
	},
	"extensionsUsed":[
		"KHR_materials_specular"
	],
	"scene":0,
	"scenes":[
		{
			"name":"Scene",
			"nodes":[
				0,
				1,
				2,
				3,
				4,
				5,
				6,
				7,
				8
			]
		}
	],
	"nodes":[
		{
			"mesh":0,
			"name":"Cube"
		},
		{
			"mesh":1,
			"name":"Cube.001"
		},
		{
			"mesh":2,
			"name":"Cube.002"
		},
		{
			"mesh":3,
			"name":"Cube.003"
		},
		{
			"mesh":4,
			"name":"Cube.004"
		},
		{
			"mesh":5,
			"name":"Cube.005"
		},
		{
			"mesh":6,
			"name":"Cube.006"
		},
		{
			"mesh":7,
			"name":"Cube.007"
		},
		{
			"mesh":8,
			"name":"Cube.008"
		}
	],
	"materials":[
		{
			"doubleSided":true,
			"extensions":{
				"KHR_materials_specular":{
					"specularFactor":0.20000000298023224
				}
			},
			"name":"Pink Porcelain Tiles",
			"normalTexture":{
				"index":0,
				"texCoord":1
			},
			"pbrMetallicRoughness":{
				"baseColorTexture":{
					"index":1,
					"texCoord":1
				},
				"metallicFactor":0,
				"metallicRoughnessTexture":{
					"index":2,
					"texCoord":1
				}
			}
		},
		{
			"doubleSided":true,
			"name":"Black Stone tiles -  Bahia black",
			"normalTexture":{
				"index":3,
				"scale":0.19999998807907104,
				"texCoord":1
			},
			"pbrMetallicRoughness":{
				"baseColorTexture":{
					"index":4,
					"texCoord":1
				},
				"metallicFactor":0,
				"metallicRoughnessTexture":{
					"index":5,
					"texCoord":1
				}
			}
		},
		{
			"doubleSided":true,
			"name":"Stone Effect tiles -  Breccia imperiale",
			"normalTexture":{
				"index":6,
				"scale":0.10000000149011612,
				"texCoord":1
			},
			"pbrMetallicRoughness":{
				"baseColorTexture":{
					"index":7,
					"texCoord":1
				},
				"metallicFactor":0,
				"metallicRoughnessTexture":{
					"index":8,
					"texCoord":1
				}
			}
		},
		{
			"doubleSided":true,
			"name":"Digital Camo Basket Weave Fabric",
			"normalTexture":{
				"index":9,
				"texCoord":1
			},
			"pbrMetallicRoughness":{
				"baseColorTexture":{
					"index":10,
					"texCoord":1
				},
				"metallicFactor":0,
				"metallicRoughnessTexture":{
					"index":11,
					"texCoord":1
				}
			}
		},
		{
			"doubleSided":true,
			"name":"Geometric Metal Panel Studs",
			"normalTexture":{
				"index":12,
				"texCoord":1
			},
			"pbrMetallicRoughness":{
				"baseColorTexture":{
					"index":13,
					"texCoord":1
				},
				"metallicRoughnessTexture":{
					"index":14,
					"texCoord":1
				}
			}
		},
		{
			"doubleSided":true,
			"name":"AT-Procedural White Marble Material",
			"pbrMetallicRoughness":{
				"metallicFactor":0
			}
		},
		{
			"doubleSided":true,
			"name":"White Subway Tile Paneling",
			"normalTexture":{
				"index":15,
				"texCoord":1
			},
			"pbrMetallicRoughness":{
				"baseColorTexture":{
					"index":16,
					"texCoord":1
				},
				"metallicFactor":0,
				"metallicRoughnessTexture":{
					"index":17,
					"texCoord":1
				}
			}
		},
		{
			"doubleSided":true,
			"name":"Riveted Wood and Metal Panels",
			"normalTexture":{
				"index":18,
				"texCoord":1
			},
			"pbrMetallicRoughness":{
				"baseColorTexture":{
					"index":19,
					"texCoord":1
				},
				"metallicRoughnessTexture":{
					"index":20,
					"texCoord":1
				}
			}
		},
		{
			"doubleSided":true,
			"name":"Glossy Parquet Wood Flooring",
			"normalTexture":{
				"index":21,
				"texCoord":1
			},
			"pbrMetallicRoughness":{
				"baseColorTexture":{
					"index":22,
					"texCoord":1
				},
				"metallicFactor":0,
				"metallicRoughnessTexture":{
					"index":23,
					"texCoord":1
				}
			}
		}
	],
	"meshes":[
		{
			"name":"Cube",
			"primitives":[
				{
					"attributes":{
						"POSITION":0,
						"NORMAL":1,
						"TEXCOORD_0":2,
						"TEXCOORD_1":3
					},
					"indices":4,
					"material":0
				}
			]
		},
		{
			"name":"Cube.001",
			"primitives":[
				{
					"attributes":{
						"POSITION":5,
						"NORMAL":6,
						"TEXCOORD_0":7,
						"TEXCOORD_1":8
					},
					"indices":4,
					"material":1
				}
			]
		},
		{
			"name":"Cube.002",
			"primitives":[
				{
					"attributes":{
						"POSITION":9,
						"NORMAL":10,
						"TEXCOORD_0":11,
						"TEXCOORD_1":12
					},
					"indices":4,
					"material":2
				}
			]
		},
		{
			"name":"Cube.003",
			"primitives":[
				{
					"attributes":{
						"POSITION":13,
						"NORMAL":14,
						"TEXCOORD_0":15,
						"TEXCOORD_1":16
					},
					"indices":4,
					"material":3
				}
			]
		},
		{
			"name":"Cube.004",
			"primitives":[
				{
					"attributes":{
						"POSITION":17,
						"NORMAL":18,
						"TEXCOORD_0":19,
						"TEXCOORD_1":20
					},
					"indices":4,
					"material":4
				}
			]
		},
		{
			"name":"Cube.005",
			"primitives":[
				{
					"attributes":{
						"POSITION":21,
						"NORMAL":22,
						"TEXCOORD_0":23,
						"TEXCOORD_1":24
					},
					"indices":4,
					"material":5
				}
			]
		},
		{
			"name":"Cube.006",
			"primitives":[
				{
					"attributes":{
						"POSITION":25,
						"NORMAL":26,
						"TEXCOORD_0":27,
						"TEXCOORD_1":28
					},
					"indices":4,
					"material":6
				}
			]
		},
		{
			"name":"Cube.007",
			"primitives":[
				{
					"attributes":{
						"POSITION":29,
						"NORMAL":30,
						"TEXCOORD_0":31,
						"TEXCOORD_1":32
					},
					"indices":4,
					"material":7
				}
			]
		},
		{
			"name":"Cube.008",
			"primitives":[
				{
					"attributes":{
						"POSITION":33,
						"NORMAL":34,
						"TEXCOORD_0":35,
						"TEXCOORD_1":36
					},
					"indices":4,
					"material":8
				}
			]
		}
	],
	"textures":[
		{
			"sampler":0,
			"source":0
		},
		{
			"sampler":0,
			"source":1
		},
		{
			"sampler":0,
			"source":2
		},
		{
			"sampler":0,
			"source":3
		},
		{
			"sampler":0,
			"source":4
		},
		{
			"sampler":0,
			"source":5
		},
		{
			"sampler":0,
			"source":6
		},
		{
			"sampler":0,
			"source":7
		},
		{
			"sampler":0,
			"source":5
		},
		{
			"sampler":0,
			"source":8
		},
		{
			"sampler":0,
			"source":9
		},
		{
			"sampler":0,
			"source":10
		},
		{
			"sampler":0,
			"source":11
		},
		{
			"sampler":0,
			"source":12
		},
		{
			"sampler":0,
			"source":13
		},
		{
			"sampler":0,
			"source":14
		},
		{
			"sampler":0,
			"source":15
		},
		{
			"sampler":0,
			"source":16
		},
		{
			"sampler":0,
			"source":17
		},
		{
			"sampler":0,
			"source":18
		},
		{
			"sampler":0,
			"source":19
		},
		{
			"sampler":0,
			"source":20
		},
		{
			"sampler":0,
			"source":21
		},
		{
			"sampler":0,
			"source":22
		}
	],
	"images":[
		{
			"mimeType":"image/jpeg",
			"name":"Porcelain Paraller Tiles 03_Normal",
			"uri":"Porcelain%20Paraller%20Tiles%2003_Normal.jpg"
		},
		{
			"mimeType":"image/jpeg",
			"name":"Porcelain Paraller Tiles 03_Albedo",
			"uri":"Porcelain%20Paraller%20Tiles%2003_Albedo.jpg"
		},
		{
			"mimeType":"image/png",
			"name":"Porcelain Paraller Tiles 03_Roughness",
			"uri":"Porcelain%20Paraller%20Tiles%2003_Roughness.png"
		},
		{
			"mimeType":"image/jpeg",
			"name":"NormalMap",
			"uri":"NormalMap.jpg"
		},
		{
			"mimeType":"image/jpeg",
			"name":"BAHIA BLACK",
			"uri":"BAHIA%20BLACK.jpg"
		},
		{
			"mimeType":"image/png",
			"name":"MASK",
			"uri":"MASK.png"
		},
		{
			"mimeType":"image/jpeg",
			"name":"NormalMap",
			"uri":"NormalMap-1.jpg"
		},
		{
			"mimeType":"image/jpeg",
			"name":"breccia imperiale",
			"uri":"breccia%20imperiale.jpg"
		},
		{
			"mimeType":"image/jpeg",
			"name":"camo_Fabric_Camo_003_Normal",
			"uri":"camo_Fabric_Camo_003_Normal.jpg"
		},
		{
			"mimeType":"image/jpeg",
			"name":"camo_Fabric_Camo_003_Base_Color",
			"uri":"camo_Fabric_Camo_003_Base_Color.jpg"
		},
		{
			"mimeType":"image/png",
			"name":"camo_Fabric_Camo_003_Roughness",
			"uri":"camo_Fabric_Camo_003_Roughness.png"
		},
		{
			"mimeType":"image/jpeg",
			"name":"Ceramic_tile_design_Metal_Pattern_002_Normal",
			"uri":"Ceramic_tile_design_Metal_Pattern_002_Normal.jpg"
		},
		{
			"mimeType":"image/jpeg",
			"name":"Ceramic_tile_design_Metal_Pattern_002_Base_Color",
			"uri":"Ceramic_tile_design_Metal_Pattern_002_Base_Color.jpg"
		},
		{
			"mimeType":"image/png",
			"name":"Ceramic_tile_design_Metal_Pattern_002_Metallic-Ceramic_tile_design_Metal_Pattern_002_Roughness",
			"uri":"Ceramic_tile_design_Metal_Pattern_002_Metallic-Ceramic_tile_design_Metal_Pattern_002_Roughness.png"
		},
		{
			"mimeType":"image/jpeg",
			"name":"CHecker_Fabric_019_Normal",
			"uri":"CHecker_Fabric_019_Normal.jpg"
		},
		{
			"mimeType":"image/jpeg",
			"name":"CHecker_Fabric_019_Base_Color",
			"uri":"CHecker_Fabric_019_Base_Color.jpg"
		},
		{
			"mimeType":"image/png",
			"name":"CHecker_Fabric_019_Roughness",
			"uri":"CHecker_Fabric_019_Roughness.png"
		},
		{
			"mimeType":"image/jpeg",
			"name":"Brown_Substance_graph_Normal",
			"uri":"Brown_Substance_graph_Normal.jpg"
		},
		{
			"mimeType":"image/jpeg",
			"name":"Brown_Substance_graph_Base_Color",
			"uri":"Brown_Substance_graph_Base_Color.jpg"
		},
		{
			"mimeType":"image/png",
			"name":"Brown_Substance_graph_Metallic-Brown_Substance_graph_Roughness",
			"uri":"Brown_Substance_graph_Metallic-Brown_Substance_graph_Roughness.png"
		},
		{
			"mimeType":"image/jpeg",
			"name":"Brown_Bamboo_Weave_001_Normal",
			"uri":"Brown_Bamboo_Weave_001_Normal.jpg"
		},
		{
			"mimeType":"image/jpeg",
			"name":"Brown_Bamboo_Weave_001_Base_Color",
			"uri":"Brown_Bamboo_Weave_001_Base_Color.jpg"
		},
		{
			"mimeType":"image/png",
			"name":"Brown_Bamboo_Weave_001_Roughness",
			"uri":"Brown_Bamboo_Weave_001_Roughness.png"
		}
	],
	"accessors":[
		{
			"bufferView":0,
			"componentType":5126,
			"count":24,
			"max":[
				5,
				5,
				5
			],
			"min":[
				-5,
				-5,
				-5
			],
			"type":"VEC3"
		},
		{
			"bufferView":1,
			"componentType":5126,
			"count":24,
			"type":"VEC3"
		},
		{
			"bufferView":2,
			"componentType":5126,
			"count":24,
			"type":"VEC2"
		},
		{
			"bufferView":3,
			"componentType":5126,
			"count":24,
			"type":"VEC2"
		},
		{
			"bufferView":4,
			"componentType":5123,
			"count":36,
			"type":"SCALAR"
		},
		{
			"bufferView":5,
			"componentType":5126,
			"count":24,
			"max":[
				5,
				5,
				-15.023368835449219
			],
			"min":[
				-5,
				-5,
				-25.02336883544922
			],
			"type":"VEC3"
		},
		{
			"bufferView":6,
			"componentType":5126,
			"count":24,
			"type":"VEC3"
		},
		{
			"bufferView":7,
			"componentType":5126,
			"count":24,
			"type":"VEC2"
		},
		{
			"bufferView":8,
			"componentType":5126,
			"count":24,
			"type":"VEC2"
		},
		{
			"bufferView":9,
			"componentType":5126,
			"count":24,
			"max":[
				30.506437301635742,
				5,
				-15.023368835449219
			],
			"min":[
				20.506437301635742,
				-5,
				-25.02336883544922
			],
			"type":"VEC3"
		},
		{
			"bufferView":10,
			"componentType":5126,
			"count":24,
			"type":"VEC3"
		},
		{
			"bufferView":11,
			"componentType":5126,
			"count":24,
			"type":"VEC2"
		},
		{
			"bufferView":12,
			"componentType":5126,
			"count":24,
			"type":"VEC2"
		},
		{
			"bufferView":13,
			"componentType":5126,
			"count":24,
			"max":[
				30.506437301635742,
				5,
				5.488164901733398
			],
			"min":[
				20.506437301635742,
				-5,
				-4.511835098266602
			],
			"type":"VEC3"
		},
		{
			"bufferView":14,
			"componentType":5126,
			"count":24,
			"type":"VEC3"
		},
		{
			"bufferView":15,
			"componentType":5126,
			"count":24,
			"type":"VEC2"
		},
		{
			"bufferView":16,
			"componentType":5126,
			"count":24,
			"type":"VEC2"
		},
		{
			"bufferView":17,
			"componentType":5126,
			"count":24,
			"max":[
				30.506437301635742,
				5,
				28.333471298217773
			],
			"min":[
				20.506437301635742,
				-5,
				18.333471298217773
			],
			"type":"VEC3"
		},
		{
			"bufferView":18,
			"componentType":5126,
			"count":24,
			"type":"VEC3"
		},
		{
			"bufferView":19,
			"componentType":5126,
			"count":24,
			"type":"VEC2"
		},
		{
			"bufferView":20,
			"componentType":5126,
			"count":24,
			"type":"VEC2"
		},
		{
			"bufferView":21,
			"componentType":5126,
			"count":24,
			"max":[
				4.938117980957031,
				5,
				28.333471298217773
			],
			"min":[
				-5.061882019042969,
				-5,
				18.333471298217773
			],
			"type":"VEC3"
		},
		{
			"bufferView":22,
			"componentType":5126,
			"count":24,
			"type":"VEC3"
		},
		{
			"bufferView":23,
			"componentType":5126,
			"count":24,
			"type":"VEC2"
		},
		{
			"bufferView":24,
			"componentType":5126,
			"count":24,
			"type":"VEC2"
		},
		{
			"bufferView":25,
			"componentType":5126,
			"count":24,
			"max":[
				-21.947309494018555,
				5,
				28.333471298217773
			],
			"min":[
				-31.947309494018555,
				-5,
				18.333471298217773
			],
			"type":"VEC3"
		},
		{
			"bufferView":26,
			"componentType":5126,
			"count":24,
			"type":"VEC3"
		},
		{
			"bufferView":27,
			"componentType":5126,
			"count":24,
			"type":"VEC2"
		},
		{
			"bufferView":28,
			"componentType":5126,
			"count":24,
			"type":"VEC2"
		},
		{
			"bufferView":29,
			"componentType":5126,
			"count":24,
			"max":[
				-21.947309494018555,
				5,
				4.171714782714844
			],
			"min":[
				-31.947309494018555,
				-5,
				-5.828285217285156
			],
			"type":"VEC3"
		},
		{
			"bufferView":30,
			"componentType":5126,
			"count":24,
			"type":"VEC3"
		},
		{
			"bufferView":31,
			"componentType":5126,
			"count":24,
			"type":"VEC2"
		},
		{
			"bufferView":32,
			"componentType":5126,
			"count":24,
			"type":"VEC2"
		},
		{
			"bufferView":33,
			"componentType":5126,
			"count":24,
			"max":[
				-21.947309494018555,
				5,
				-15.160341262817383
			],
			"min":[
				-31.947309494018555,
				-5,
				-25.160341262817383
			],
			"type":"VEC3"
		},
		{
			"bufferView":34,
			"componentType":5126,
			"count":24,
			"type":"VEC3"
		},
		{
			"bufferView":35,
			"componentType":5126,
			"count":24,
			"type":"VEC2"
		},
		{
			"bufferView":36,
			"componentType":5126,
			"count":24,
			"type":"VEC2"
		}
	],
	"bufferViews":[
		{
			"buffer":0,
			"byteLength":288,
			"byteOffset":0,
			"target":34962
		},
		{
			"buffer":0,
			"byteLength":288,
			"byteOffset":288,
			"target":34962
		},
		{
			"buffer":0,
			"byteLength":192,
			"byteOffset":576,
			"target":34962
		},
		{
			"buffer":0,
			"byteLength":192,
			"byteOffset":768,
			"target":34962
		},
		{
			"buffer":0,
			"byteLength":72,
			"byteOffset":960,
			"target":34963
		},
		{
			"buffer":0,
			"byteLength":288,
			"byteOffset":1032,
			"target":34962
		},
		{
			"buffer":0,
			"byteLength":288,
			"byteOffset":1320,
			"target":34962
		},
		{
			"buffer":0,
			"byteLength":192,
			"byteOffset":1608,
			"target":34962
		},
		{
			"buffer":0,
			"byteLength":192,
			"byteOffset":1800,
			"target":34962
		},
		{
			"buffer":0,
			"byteLength":288,
			"byteOffset":1992,
			"target":34962
		},
		{
			"buffer":0,
			"byteLength":288,
			"byteOffset":2280,
			"target":34962
		},
		{
			"buffer":0,
			"byteLength":192,
			"byteOffset":2568,
			"target":34962
		},
		{
			"buffer":0,
			"byteLength":192,
			"byteOffset":2760,
			"target":34962
		},
		{
			"buffer":0,
			"byteLength":288,
			"byteOffset":2952,
			"target":34962
		},
		{
			"buffer":0,
			"byteLength":288,
			"byteOffset":3240,
			"target":34962
		},
		{
			"buffer":0,
			"byteLength":192,
			"byteOffset":3528,
			"target":34962
		},
		{
			"buffer":0,
			"byteLength":192,
			"byteOffset":3720,
			"target":34962
		},
		{
			"buffer":0,
			"byteLength":288,
			"byteOffset":3912,
			"target":34962
		},
		{
			"buffer":0,
			"byteLength":288,
			"byteOffset":4200,
			"target":34962
		},
		{
			"buffer":0,
			"byteLength":192,
			"byteOffset":4488,
			"target":34962
		},
		{
			"buffer":0,
			"byteLength":192,
			"byteOffset":4680,
			"target":34962
		},
		{
			"buffer":0,
			"byteLength":288,
			"byteOffset":4872,
			"target":34962
		},
		{
			"buffer":0,
			"byteLength":288,
			"byteOffset":5160,
			"target":34962
		},
		{
			"buffer":0,
			"byteLength":192,
			"byteOffset":5448,
			"target":34962
		},
		{
			"buffer":0,
			"byteLength":192,
			"byteOffset":5640,
			"target":34962
		},
		{
			"buffer":0,
			"byteLength":288,
			"byteOffset":5832,
			"target":34962
		},
		{
			"buffer":0,
			"byteLength":288,
			"byteOffset":6120,
			"target":34962
		},
		{
			"buffer":0,
			"byteLength":192,
			"byteOffset":6408,
			"target":34962
		},
		{
			"buffer":0,
			"byteLength":192,
			"byteOffset":6600,
			"target":34962
		},
		{
			"buffer":0,
			"byteLength":288,
			"byteOffset":6792,
			"target":34962
		},
		{
			"buffer":0,
			"byteLength":288,
			"byteOffset":7080,
			"target":34962
		},
		{
			"buffer":0,
			"byteLength":192,
			"byteOffset":7368,
			"target":34962
		},
		{
			"buffer":0,
			"byteLength":192,
			"byteOffset":7560,
			"target":34962
		},
		{
			"buffer":0,
			"byteLength":288,
			"byteOffset":7752,
			"target":34962
		},
		{
			"buffer":0,
			"byteLength":288,
			"byteOffset":8040,
			"target":34962
		},
		{
			"buffer":0,
			"byteLength":192,
			"byteOffset":8328,
			"target":34962
		},
		{
			"buffer":0,
			"byteLength":192,
			"byteOffset":8520,
			"target":34962
		}
	],
	"samplers":[
		{
			"magFilter":9729,
			"minFilter":9987
		}
	],
	"buffers":[
		{
			"byteLength":8712,
			"uri":"object.bin"
		}
	]
}
