# Blender 4.4.0
# www.blender.org
mtllib sphere.mtl
o 球
v 0.000000 8.314696 -5.555704
v 0.000000 5.555702 -8.314696
v 0.000000 1.950901 -9.807853
v 0.000000 -0.000002 -10.000000
v 0.000000 -1.950905 -9.807853
v 0.000000 -5.555704 -8.314696
v 0.380602 9.807853 -1.913419
v 0.746578 9.238795 -3.753305
v 1.083864 8.314696 -5.448951
v 1.379497 7.071066 -6.935199
v 1.622117 5.555702 -8.154931
v 1.802399 3.826833 -9.061274
v 1.913417 1.950901 -9.619397
v 1.950903 -0.000002 -9.807853
v 1.913417 -1.950905 -9.619397
v 1.802399 -3.826837 -9.061274
v 1.622117 -5.555704 -8.154931
v 1.379497 -7.071068 -6.935197
v 1.083864 -8.314696 -5.448949
v 0.746578 -9.238795 -3.753301
v 0.380602 -9.807853 -1.913415
v 0.746578 9.807853 -1.802401
v 1.464466 9.238795 -3.535536
v 2.126075 8.314696 -5.132801
v 2.705981 7.071066 -6.532815
v 3.181896 5.555702 -7.681777
v 3.535533 3.826833 -8.535534
v 3.753303 1.950901 -9.061274
v 3.826834 -0.000002 -9.238794
v 3.753303 -1.950905 -9.061274
v 3.535533 -3.826837 -8.535534
v 3.181896 -5.555704 -7.681776
v 2.705981 -7.071068 -6.532815
v 2.126075 -8.314696 -5.132799
v 1.464466 -9.238795 -3.535532
v 0.746578 -9.807853 -1.802397
v 1.083864 9.807853 -1.622119
v 2.126075 9.238795 -3.181898
v 3.086583 8.314696 -4.619399
v 3.928475 7.071066 -5.879378
v 4.619397 5.555702 -6.913416
v 5.132799 3.826833 -7.681777
v 5.448951 1.950901 -8.154931
v 5.555702 -0.000002 -8.314694
v 5.448951 -1.950905 -8.154931
v 5.132799 -3.826835 -7.681777
v 4.619397 -5.555704 -6.913414
v 3.928475 -7.071068 -5.879376
v 3.086583 -8.314696 -4.619397
v 2.126075 -9.238795 -3.181894
v 1.083864 -9.807853 -1.622115
v 1.379497 9.807853 -1.379499
v 2.705981 9.238795 -2.705982
v 3.928474 8.314696 -3.928476
v 5.000000 7.071066 -5.000000
v 5.879377 5.555702 -5.879376
v 6.532814 3.826833 -6.532815
v 6.935199 1.950903 -6.935198
v 7.071068 -0.000002 -7.071066
v 6.935199 -1.950904 -6.935198
v 6.532814 -3.826835 -6.532815
v 5.879377 -5.555704 -5.879375
v 5.000000 -7.071068 -5.000000
v 3.928474 -8.314696 -3.928472
v 2.705981 -9.238795 -2.705978
v 1.379497 -9.807853 -1.379495
v 1.622117 9.807853 -1.083865
v 3.181896 9.238795 -2.126077
v 4.619397 8.314696 -3.086584
v 5.879378 7.071066 -3.928475
v 6.913416 5.555702 -4.619398
v 7.681776 3.826833 -5.132802
v 8.154931 1.950903 -5.448950
v 8.314695 -0.000000 -5.555700
v 8.154931 -1.950903 -5.448950
v 7.681776 -3.826835 -5.132800
v 6.913416 -5.555704 -4.619396
v 5.879378 -7.071068 -3.928473
v 4.619397 -8.314696 -3.086580
v 3.181896 -9.238795 -2.126073
v 1.622117 -9.807853 -1.083861
v 0.000000 10.000000 -0.000002
v 1.802399 9.807853 -0.746580
v 3.535533 9.238795 -1.464468
v 5.132799 8.314696 -2.126077
v 6.532815 7.071068 -2.705981
v 7.681776 5.555702 -3.181895
v 8.535533 3.826835 -3.535534
v 9.061274 1.950903 -3.753302
v 9.238794 -0.000000 -3.826832
v 9.061274 -1.950903 -3.753302
v 8.535533 -3.826835 -3.535534
v 7.681776 -5.555704 -3.181895
v 6.532815 -7.071068 -2.705981
v 5.132799 -8.314696 -2.126073
v 3.535533 -9.238795 -1.464464
v 1.802399 -9.807853 -0.746576
v 1.913417 9.807853 -0.380604
v 3.753302 9.238795 -0.746580
v 5.448951 8.314696 -1.083865
v 6.935199 7.071068 -1.379498
v 8.154930 5.555702 -1.622116
v 9.061274 3.826835 -1.802400
v 9.619396 1.950903 -1.913416
v 9.807851 -0.000000 -1.950901
v 9.619396 -1.950903 -1.913416
v 9.061274 -3.826835 -1.802400
v 8.154930 -5.555702 -1.622115
v 6.935199 -7.071068 -1.379497
v 5.448951 -8.314696 -1.083861
v 3.753302 -9.238795 -0.746576
v 1.913417 -9.807853 -0.380600
v 1.950903 9.807853 -0.000002
v 3.826834 9.238795 -0.000002
v 5.555701 8.314696 -0.000001
v 7.071067 7.071068 -0.000002
v 8.314694 5.555702 0.000001
v 9.238794 3.826835 -0.000000
v 9.807852 1.950903 0.000001
v 9.999997 0.000000 0.000002
v 9.807852 -1.950903 0.000001
v 9.238794 -3.826835 0.000000
v 8.314694 -5.555702 0.000001
v 7.071067 -7.071068 0.000002
v 5.555701 -8.314696 0.000003
v 3.826834 -9.238795 0.000002
v 1.950903 -9.807853 0.000002
v 1.913417 9.807853 0.380600
v 3.753302 9.238795 0.746577
v 5.448950 8.314696 1.083862
v 6.935198 7.071068 1.379497
v 8.154929 5.555702 1.622117
v 9.061274 3.826835 1.802399
v 9.619396 1.950903 1.913418
v 9.807849 0.000000 1.950904
v 9.619396 -1.950903 1.913418
v 9.061274 -3.826835 1.802399
v 8.154929 -5.555702 1.622118
v 6.935198 -7.071068 1.379498
v 5.448950 -8.314696 1.083866
v 3.753302 -9.238795 0.746581
v 1.913417 -9.807853 0.380604
v 1.802399 9.807853 0.746576
v 3.535533 9.238795 1.464464
v 5.132798 8.314696 2.126073
v 6.532814 7.071068 2.705980
v 7.681775 5.555704 3.181895
v 8.535533 3.826835 3.535533
v 9.061272 1.950903 3.753303
v 9.238791 0.000000 3.826835
v 9.061272 -1.950903 3.753303
v 8.535533 -3.826835 3.535533
v 7.681775 -5.555702 3.181896
v 6.532814 -7.071068 2.705981
v 5.132798 -8.314696 2.126077
v 3.535533 -9.238795 1.464468
v 1.802399 -9.807853 0.746580
v 1.622116 9.807853 1.083861
v 3.181896 9.238795 2.126073
v 4.619396 8.314696 3.086580
v 5.879377 7.071068 3.928473
v 6.913414 5.555704 4.619397
v 7.681776 3.826835 5.132799
v 8.154929 1.950903 5.448951
v 8.314692 0.000000 5.555702
v 8.154929 -1.950903 5.448951
v 7.681776 -3.826833 5.132801
v 6.913414 -5.555702 4.619399
v 5.879377 -7.071066 3.928474
v 4.619396 -8.314696 3.086584
v 3.181896 -9.238795 2.126077
v 1.622116 -9.807853 1.083865
v 1.379496 9.807853 1.379494
v 2.705980 9.238795 2.705978
v 3.928473 8.314696 3.928472
v 5.000000 7.071068 5.000000
v 5.879375 5.555704 5.879375
v 6.532814 3.826835 6.532813
v 6.935197 1.950904 6.935198
v 7.071062 0.000002 7.071066
v 6.935197 -1.950903 6.935198
v 6.532814 -3.826833 6.532815
v 5.879375 -5.555702 5.879376
v 5.000000 -7.071066 5.000000
v 3.928473 -8.314696 3.928476
v 2.705980 -9.238795 2.705982
v 1.379496 -9.807853 1.379498
v 1.083863 9.807853 1.622114
v 2.126074 9.238795 3.181894
v 3.086581 8.314696 4.619397
v 3.928474 7.071068 5.879375
v 4.619395 5.555704 6.913414
v 5.132799 3.826835 7.681776
v 5.448949 1.950905 8.154930
v 5.555697 0.000002 8.314693
v 5.448949 -1.950901 8.154930
v 5.132799 -3.826833 7.681777
v 4.619395 -5.555702 6.913415
v 3.928474 -7.071066 5.879377
v 3.086581 -8.314696 4.619399
v 2.126074 -9.238795 3.181898
v 1.083863 -9.807853 1.622118
v 0.746578 9.807853 1.802397
v 1.464465 9.238795 3.535531
v 2.126074 8.314696 5.132798
v 2.705980 7.071068 6.532814
v 3.181894 5.555704 7.681775
v 3.535533 3.826837 8.535532
v 3.753300 1.950905 9.061272
v 3.826829 0.000002 9.238791
v 3.753300 -1.950901 9.061272
v 3.535533 -3.826833 8.535532
v 3.181894 -5.555702 7.681777
v 2.705980 -7.071066 6.532815
v 2.126074 -8.314696 5.132800
v 1.464465 -9.238795 3.535535
v 0.746578 -9.807853 1.802401
v 0.380602 9.807853 1.913414
v 0.746578 9.238795 3.753300
v 1.083862 8.314696 5.448947
v 1.379497 7.071068 6.935196
v 1.622115 5.555704 8.154928
v 1.802399 3.826837 9.061272
v 1.913415 1.950905 9.619394
v 1.950899 0.000002 9.807848
v 1.913415 -1.950901 9.619394
v 1.802399 -3.826833 9.061272
v 1.622115 -5.555702 8.154928
v 1.379497 -7.071066 6.935198
v 1.083862 -8.314696 5.448949
v 0.746578 -9.238795 3.753304
v 0.380602 -9.807853 1.913418
v 0.000000 9.807853 1.950900
v -0.000001 9.238795 3.826831
v -0.000001 8.314696 5.555697
v 0.000000 7.071068 7.071064
v -0.000001 5.555704 8.314693
v 0.000000 3.826837 9.238792
v -0.000001 1.950905 9.807850
v -0.000003 0.000002 9.999993
v -0.000001 -1.950901 9.807850
v 0.000000 -3.826833 9.238792
v -0.000001 -5.555702 8.314693
v 0.000000 -7.071066 7.071066
v -0.000001 -8.314696 5.555699
v -0.000001 -9.238795 3.826835
v 0.000000 -9.807853 1.950904
v -0.380602 9.807853 1.913414
v -0.746579 9.238795 3.753300
v -1.083864 8.314696 5.448946
v -1.379497 7.071068 6.935196
v -1.622117 5.555704 8.154928
v -1.802399 3.826837 9.061272
v -1.913418 1.950905 9.619394
v -1.950905 0.000002 9.807845
v -1.913418 -1.950901 9.619394
v -1.802399 -3.826833 9.061272
v -1.622117 -5.555702 8.154928
v -1.379497 -7.071066 6.935198
v -1.083864 -8.314696 5.448948
v -0.746579 -9.238795 3.753304
v -0.380602 -9.807853 1.913418
v -0.746578 9.807853 1.802396
v -1.464466 9.238795 3.535531
v -2.126075 8.314696 5.132794
v -2.705980 7.071068 6.532813
v -3.181896 5.555704 7.681774
v -3.535532 3.826837 8.535531
v -3.753303 1.950905 9.061271
v -3.826835 0.000002 9.238788
v -3.753303 -1.950901 9.061271
v -3.535532 -3.826833 8.535531
v -3.181896 -5.555702 7.681776
v -2.705980 -7.071066 6.532815
v -2.126075 -8.314696 5.132796
v -1.464466 -9.238795 3.535535
v -0.746578 -9.807853 1.802400
v -1.083863 9.807853 1.622113
v -2.126075 9.238795 3.181893
v -3.086582 8.314696 4.619392
v -3.928474 7.071068 5.879375
v -4.619396 5.555704 6.913414
v -5.132797 3.826835 7.681775
v -5.448951 1.950905 8.154927
v -5.555701 0.000002 8.314688
v -5.448951 -1.950901 8.154927
v -5.132797 -3.826833 7.681777
v -4.619396 -5.555702 6.913414
v -3.928474 -7.071066 5.879376
v -3.086582 -8.314696 4.619394
v -2.126075 -9.238795 3.181897
v -1.083863 -9.807853 1.622117
v -1.379496 9.807853 1.379494
v -2.705980 9.238795 2.705977
v -3.928473 8.314696 3.928469
v -4.999999 7.071068 4.999999
v -5.879376 5.555704 5.879374
v -6.532812 3.826835 6.532813
v -6.935198 1.950904 6.935195
v -7.071065 0.000002 7.071059
v -6.935198 -1.950903 6.935195
v -6.532812 -3.826833 6.532815
v -5.879376 -5.555702 5.879375
v -4.999999 -7.071066 5.000000
v -3.928473 -8.314696 3.928473
v -2.705980 -9.238795 2.705981
v -1.379496 -9.807853 1.379498
v 0.000000 -10.000000 0.000002
v -1.622115 9.807853 1.083861
v -3.181896 9.238795 2.126072
v -4.619395 8.314696 3.086577
v -5.879376 7.071068 3.928473
v -6.913414 5.555704 4.619392
v -7.681775 3.826835 5.132798
v -8.154929 1.950903 5.448947
v -8.314692 0.000000 5.555694
v -8.154929 -1.950903 5.448947
v -7.681775 -3.826833 5.132800
v -6.913414 -5.555702 4.619394
v -5.879376 -7.071066 3.928473
v -4.619395 -8.314696 3.086581
v -3.181896 -9.238795 2.126076
v -1.622115 -9.807853 1.083865
v -1.802398 9.807853 0.746576
v -3.535533 9.238795 1.464463
v -5.132796 8.314696 2.126070
v -6.532813 7.071068 2.705980
v -7.681774 5.555704 3.181893
v -8.535530 3.826835 3.535533
v -9.061272 1.950903 3.753299
v -9.238789 0.000000 3.826827
v -9.061272 -1.950903 3.753299
v -8.535530 -3.826835 3.535533
v -7.681774 -5.555702 3.181895
v -6.532813 -7.071068 2.705981
v -5.132796 -8.314696 2.126074
v -3.535533 -9.238795 1.464467
v -1.802398 -9.807853 0.746580
v -1.913415 9.807853 0.380600
v -3.753301 9.238795 0.746576
v -5.448947 8.314696 1.083859
v -6.935198 7.071068 1.379496
v -8.154927 5.555702 1.622113
v -9.061271 3.826835 1.802399
v -9.619394 1.950903 1.913414
v -9.807844 0.000000 1.950897
v -9.619394 -1.950903 1.913414
v -9.061271 -3.826835 1.802399
v -8.154927 -5.555702 1.622114
v -6.935198 -7.071068 1.379496
v -5.448947 -8.314696 1.083863
v -3.753301 -9.238795 0.746580
v -1.913415 -9.807853 0.380604
v -1.950902 9.807853 -0.000002
v -3.826833 9.238795 -0.000003
v -5.555697 8.314696 -0.000003
v -7.071066 7.071068 -0.000002
v -8.314692 5.555702 -0.000002
v -9.238791 3.826835 -0.000000
v -9.807848 1.950903 -0.000003
v -9.999990 -0.000000 -0.000004
v -9.807848 -1.950903 -0.000003
v -9.238791 -3.826835 0.000000
v -8.314692 -5.555702 -0.000002
v -7.071066 -7.071068 0.000002
v -5.555697 -8.314696 0.000001
v -3.826833 -9.238795 0.000001
v -1.950902 -9.807853 0.000002
v -1.913415 9.807853 -0.380604
v -3.753301 9.238795 -0.746581
v -5.448946 8.314696 -1.083866
v -6.935197 7.071068 -1.379498
v -8.154926 5.555702 -1.622118
v -9.061271 3.826835 -1.802399
v -9.619392 1.950903 -1.913419
v -9.807842 -0.000000 -1.950906
v -9.619392 -1.950903 -1.913419
v -9.061271 -3.826835 -1.802399
v -8.154926 -5.555702 -1.622118
v -6.935197 -7.071068 -1.379497
v -5.448946 -8.314696 -1.083862
v -3.753301 -9.238795 -0.746577
v -1.913415 -9.807853 -0.380600
v -1.802398 9.807853 -0.746580
v -3.535532 9.238795 -1.464468
v -5.132794 8.314696 -2.126077
v -6.532813 7.071068 -2.705981
v -7.681772 5.555702 -3.181896
v -8.535530 3.826835 -3.535532
v -9.061269 1.950903 -3.753303
v -9.238785 -0.000000 -3.826835
v -9.061269 -1.950903 -3.753303
v -8.535530 -3.826835 -3.535532
v -7.681772 -5.555704 -3.181895
v -6.532813 -7.071068 -2.705980
v -5.132794 -8.314696 -2.126073
v -3.535532 -9.238795 -1.464464
v -1.802398 -9.807853 -0.746576
v -1.622115 9.807853 -1.083865
v -3.181894 9.238795 -2.126077
v -4.619392 8.314696 -3.086583
v -5.879376 7.071066 -3.928474
v -6.913412 5.555702 -4.619398
v -7.681774 3.826833 -5.132797
v -8.154925 1.950903 -5.448951
v -8.314685 -0.000000 -5.555701
v -8.154925 -1.950903 -5.448951
v -7.681774 -3.826835 -5.132795
v -6.913412 -5.555704 -4.619396
v -5.879376 -7.071068 -3.928473
v -4.619392 -8.314696 -3.086579
v -3.181894 -9.238795 -2.126073
v -1.622115 -9.807853 -1.083861
v -1.379495 9.807853 -1.379498
v -2.705979 9.238795 -2.705981
v -3.928469 8.314696 -3.928475
v -4.999998 7.071066 -5.000000
v -5.879373 5.555702 -5.879375
v -6.532812 3.826833 -6.532814
v -6.935194 1.950903 -6.935197
v -7.071057 -0.000002 -7.071064
v -6.935194 -1.950904 -6.935197
v -6.532812 -3.826835 -6.532812
v -5.879373 -5.555704 -5.879375
v -4.999998 -7.071068 -4.999999
v -3.928469 -8.314696 -3.928471
v -2.705979 -9.238795 -2.705977
v -1.379495 -9.807853 -1.379494
v -1.083863 9.807853 -1.622117
v -2.126074 9.238795 -3.181897
v -3.086578 8.314696 -4.619394
v -3.928473 7.071066 -5.879376
v -4.619393 5.555702 -6.913414
v -5.132797 3.826833 -7.681776
v -5.448946 1.950901 -8.154928
v -5.555692 -0.000002 -8.314690
v -5.448946 -1.950905 -8.154928
v -5.132797 -3.826835 -7.681774
v -4.619393 -5.555704 -6.913414
v -3.928473 -7.071068 -5.879375
v -3.086578 -8.314696 -4.619392
v -2.126074 -9.238795 -3.181893
v -1.083863 -9.807853 -1.622113
v -0.746577 9.807853 -1.802400
v -1.464465 9.238795 -3.535534
v -2.126071 8.314696 -5.132795
v -2.705979 7.071066 -6.532815
v -3.181892 5.555702 -7.681775
v -3.535532 3.826833 -8.535530
v -3.753298 1.950901 -9.061270
v -3.826826 -0.000002 -9.238786
v -3.753298 -1.950905 -9.061270
v -3.535532 -3.826837 -8.535530
v -3.181892 -5.555704 -7.681773
v -2.705979 -7.071068 -6.532813
v -2.126071 -8.314696 -5.132793
v -1.464465 -9.238795 -3.535530
v -0.746577 -9.807853 -1.802396
v -0.380602 9.807853 -1.913417
v -0.746577 9.238795 -3.753303
v -1.083860 8.314696 -5.448946
v -1.379496 7.071066 -6.935198
v -1.622113 5.555702 -8.154925
v -1.802398 3.826833 -9.061270
v -1.913413 1.950901 -9.619392
v -1.950896 -0.000002 -9.807842
v -1.913413 -1.950905 -9.619392
v -1.802398 -3.826837 -9.061270
v -1.622113 -5.555704 -8.154925
v -1.379496 -7.071068 -6.935196
v -1.083860 -8.314696 -5.448945
v -0.746577 -9.238795 -3.753299
v -0.380602 -9.807853 -1.913413
v 0.000000 9.807853 -1.950903
v 0.000001 9.238795 -3.826834
v 0.000001 7.071066 -7.071066
v 0.000001 3.826833 -9.238791
v 0.000001 -3.826837 -9.238791
v 0.000001 -7.071068 -7.071064
v 0.000002 -8.314696 -5.555696
v 0.000001 -9.238795 -3.826830
v 0.000000 -9.807853 -1.950899
vn 0.0975 0.0975 -0.9904
vn 0.0976 0.0975 -0.9904
vn 0.0097 0.9951 -0.0980
vn 0.0097 -0.9951 -0.0980
vn 0.0976 -0.0975 -0.9904
vn 0.0286 0.9565 -0.2902
vn 0.0938 -0.2890 -0.9527
vn 0.0464 0.8810 -0.4709
vn 0.0865 -0.4696 -0.8786
vn 0.0624 0.7715 -0.6332
vn 0.0759 -0.6326 -0.7708
vn 0.0759 0.6326 -0.7708
vn 0.0624 -0.7715 -0.6332
vn 0.0865 0.4696 -0.8786
vn 0.0464 -0.8810 -0.4709
vn 0.0938 0.2890 -0.9527
vn 0.0286 -0.9565 -0.2902
vn 0.2779 0.2890 -0.9161
vn 0.0846 -0.9565 -0.2790
vn 0.2889 0.0975 -0.9524
vn 0.0286 0.9951 -0.0942
vn 0.0286 -0.9951 -0.0942
vn 0.2889 -0.0975 -0.9524
vn 0.0846 0.9565 -0.2790
vn 0.2779 -0.2890 -0.9161
vn 0.1374 0.8810 -0.4528
vn 0.2563 -0.4696 -0.8448
vn 0.1847 0.7715 -0.6088
vn 0.2248 -0.6326 -0.7412
vn 0.2248 0.6326 -0.7412
vn 0.1847 -0.7715 -0.6088
vn 0.2563 0.4696 -0.8448
vn 0.1374 -0.8810 -0.4528
vn 0.4162 -0.4696 -0.7786
vn 0.2999 0.7715 -0.5611
vn 0.3651 -0.6326 -0.6831
vn 0.3651 0.6326 -0.6831
vn 0.2999 -0.7715 -0.5611
vn 0.4162 0.4696 -0.7786
vn 0.2230 -0.8810 -0.4173
vn 0.4513 0.2890 -0.8443
vn 0.1374 -0.9565 -0.2571
vn 0.4691 0.0975 -0.8777
vn 0.0464 0.9951 -0.0869
vn 0.0464 -0.9951 -0.0869
vn 0.4691 -0.0975 -0.8777
vn 0.1374 0.9565 -0.2571
vn 0.4513 -0.2890 -0.8443
vn 0.2230 0.8810 -0.4173
vn 0.2231 0.8810 -0.4173
vn 0.1850 -0.9565 -0.2254
vn 0.6314 0.0975 -0.7693
vn 0.0625 0.9951 -0.0761
vn 0.0625 -0.9951 -0.0761
vn 0.6314 -0.0975 -0.7693
vn 0.1850 0.9565 -0.2254
vn 0.6073 -0.2890 -0.7400
vn 0.3002 0.8810 -0.3658
vn 0.5601 -0.4696 -0.6825
vn 0.4036 0.7715 -0.4918
vn 0.4913 -0.6326 -0.5987
vn 0.4913 0.6326 -0.5987
vn 0.4036 -0.7715 -0.4918
vn 0.5601 0.4696 -0.6825
vn 0.3002 -0.8810 -0.3658
vn 0.6073 0.2890 -0.7400
vn 0.4918 0.7715 -0.4036
vn 0.5987 -0.6326 -0.4913
vn 0.5987 0.6326 -0.4913
vn 0.4918 -0.7715 -0.4036
vn 0.6825 0.4696 -0.5601
vn 0.3658 -0.8810 -0.3002
vn 0.7400 0.2890 -0.6073
vn 0.2254 -0.9565 -0.1850
vn 0.7693 0.0975 -0.6314
vn 0.0761 0.9951 -0.0625
vn 0.0761 -0.9951 -0.0625
vn 0.7693 -0.0975 -0.6314
vn 0.2254 0.9565 -0.1850
vn 0.7400 -0.2890 -0.6073
vn 0.3658 0.8810 -0.3002
vn 0.6825 -0.4696 -0.5601
vn 0.8777 0.0975 -0.4691
vn 0.0869 0.9951 -0.0464
vn 0.0869 -0.9951 -0.0464
vn 0.8777 -0.0975 -0.4691
vn 0.2571 0.9565 -0.1374
vn 0.8443 -0.2890 -0.4513
vn 0.4173 0.8810 -0.2230
vn 0.7786 -0.4696 -0.4162
vn 0.5611 0.7715 -0.2999
vn 0.6831 -0.6326 -0.3651
vn 0.6831 0.6326 -0.3651
vn 0.5611 -0.7715 -0.2999
vn 0.7786 0.4696 -0.4162
vn 0.4173 -0.8810 -0.2230
vn 0.8443 0.2890 -0.4513
vn 0.2571 -0.9565 -0.1374
vn 0.7412 -0.6326 -0.2248
vn 0.7412 0.6326 -0.2248
vn 0.6088 -0.7715 -0.1847
vn 0.8448 0.4696 -0.2563
vn 0.4528 -0.8810 -0.1374
vn 0.9161 0.2890 -0.2779
vn 0.2790 -0.9565 -0.0846
vn 0.9524 0.0975 -0.2889
vn 0.0942 0.9951 -0.0286
vn 0.0942 -0.9951 -0.0286
vn 0.9524 -0.0975 -0.2889
vn 0.2790 0.9565 -0.0846
vn 0.9161 -0.2890 -0.2779
vn 0.4528 0.8810 -0.1374
vn 0.8448 -0.4696 -0.2563
vn 0.6088 0.7715 -0.1847
vn 0.0980 -0.9951 -0.0097
vn 0.9904 -0.0975 -0.0975
vn 0.2902 0.9565 -0.0286
vn 0.9527 -0.2890 -0.0938
vn 0.4709 0.8810 -0.0464
vn 0.8786 -0.4696 -0.0865
vn 0.6332 0.7715 -0.0624
vn 0.7708 -0.6326 -0.0759
vn 0.7708 0.6326 -0.0759
vn 0.6332 -0.7715 -0.0624
vn 0.8786 0.4696 -0.0865
vn 0.4709 -0.8810 -0.0464
vn 0.9527 0.2890 -0.0938
vn 0.2902 -0.9565 -0.0286
vn 0.9904 0.0975 -0.0975
vn 0.0980 0.9951 -0.0097
vn 0.6332 -0.7715 0.0624
vn 0.8786 0.4696 0.0865
vn 0.4709 -0.8810 0.0464
vn 0.9527 0.2890 0.0938
vn 0.2902 -0.9565 0.0286
vn 0.9904 0.0975 0.0976
vn 0.0980 0.9951 0.0097
vn 0.0980 -0.9951 0.0097
vn 0.9904 -0.0975 0.0976
vn 0.9904 -0.0975 0.0975
vn 0.2902 0.9565 0.0286
vn 0.9527 -0.2890 0.0938
vn 0.4709 0.8810 0.0464
vn 0.8786 -0.4696 0.0865
vn 0.6332 0.7715 0.0624
vn 0.7708 -0.6326 0.0759
vn 0.7708 0.6326 0.0759
vn 0.2790 0.9565 0.0846
vn 0.9161 -0.2890 0.2779
vn 0.4528 0.8810 0.1374
vn 0.8448 -0.4696 0.2563
vn 0.6088 0.7715 0.1847
vn 0.7412 -0.6326 0.2248
vn 0.7412 0.6326 0.2248
vn 0.6088 -0.7715 0.1847
vn 0.8448 0.4696 0.2563
vn 0.4528 -0.8810 0.1374
vn 0.9161 0.2890 0.2779
vn 0.2790 -0.9565 0.0846
vn 0.9524 0.0975 0.2889
vn 0.0942 0.9951 0.0286
vn 0.0942 -0.9951 0.0286
vn 0.9524 -0.0975 0.2889
vn 0.7786 0.4696 0.4162
vn 0.4173 -0.8810 0.2230
vn 0.8443 0.2890 0.4513
vn 0.2571 -0.9565 0.1374
vn 0.8777 0.0975 0.4691
vn 0.0869 0.9951 0.0464
vn 0.0869 -0.9951 0.0464
vn 0.8777 -0.0975 0.4691
vn 0.2571 0.9565 0.1374
vn 0.8443 -0.2890 0.4513
vn 0.4173 0.8810 0.2230
vn 0.7786 -0.4696 0.4162
vn 0.5611 0.7715 0.2999
vn 0.6831 -0.6326 0.3651
vn 0.6831 0.6326 0.3651
vn 0.5611 -0.7715 0.2999
vn 0.7400 -0.2890 0.6073
vn 0.3658 0.8810 0.3002
vn 0.6825 -0.4696 0.5601
vn 0.4918 0.7715 0.4036
vn 0.5987 -0.6326 0.4913
vn 0.5987 0.6326 0.4913
vn 0.4918 -0.7715 0.4036
vn 0.6825 0.4696 0.5601
vn 0.3658 -0.8810 0.3002
vn 0.7400 0.2890 0.6073
vn 0.2254 -0.9565 0.1850
vn 0.7693 0.0975 0.6314
vn 0.0761 0.9951 0.0625
vn 0.0761 -0.9951 0.0625
vn 0.7693 -0.0975 0.6314
vn 0.2254 0.9565 0.1850
vn 0.3002 -0.8810 0.3658
vn 0.6073 0.2890 0.7400
vn 0.1850 -0.9565 0.2254
vn 0.6314 0.0975 0.7693
vn 0.0625 0.9951 0.0761
vn 0.0625 -0.9951 0.0761
vn 0.6314 -0.0975 0.7693
vn 0.1850 0.9565 0.2254
vn 0.6073 -0.2890 0.7400
vn 0.3002 0.8810 0.3658
vn 0.5601 -0.4696 0.6825
vn 0.4036 0.7715 0.4918
vn 0.4913 -0.6326 0.5987
vn 0.4913 0.6326 0.5987
vn 0.4036 -0.7715 0.4918
vn 0.5601 0.4696 0.6825
vn 0.2230 0.8810 0.4173
vn 0.4162 -0.4696 0.7786
vn 0.2999 0.7715 0.5611
vn 0.3651 -0.6326 0.6831
vn 0.3651 0.6326 0.6831
vn 0.2999 -0.7715 0.5611
vn 0.4162 0.4696 0.7786
vn 0.2230 -0.8810 0.4173
vn 0.4513 0.2890 0.8443
vn 0.1374 -0.9565 0.2571
vn 0.4691 0.0975 0.8777
vn 0.0464 0.9951 0.0869
vn 0.0464 -0.9951 0.0869
vn 0.4691 -0.0975 0.8777
vn 0.1374 0.9565 0.2571
vn 0.4513 -0.2890 0.8443
vn 0.2779 0.2890 0.9161
vn 0.0846 -0.9565 0.2790
vn 0.2889 0.0975 0.9524
vn 0.0286 0.9951 0.0942
vn 0.0286 -0.9951 0.0942
vn 0.2889 -0.0975 0.9524
vn 0.0846 0.9565 0.2790
vn 0.2779 -0.2890 0.9161
vn 0.1374 0.8810 0.4528
vn 0.2563 -0.4696 0.8448
vn 0.1847 0.7715 0.6088
vn 0.2248 -0.6326 0.7412
vn 0.2248 0.6326 0.7412
vn 0.1847 -0.7715 0.6088
vn 0.2563 0.4696 0.8448
vn 0.1374 -0.8810 0.4528
vn 0.0865 -0.4696 0.8786
vn 0.0624 0.7715 0.6332
vn 0.0759 -0.6326 0.7708
vn 0.0759 0.6326 0.7708
vn 0.0624 -0.7715 0.6332
vn 0.0865 0.4696 0.8786
vn 0.0464 -0.8810 0.4709
vn 0.0938 0.2890 0.9527
vn 0.0286 -0.9565 0.2902
vn 0.0975 0.0975 0.9904
vn 0.0097 0.9951 0.0980
vn 0.0097 -0.9951 0.0980
vn 0.0975 -0.0975 0.9904
vn 0.0286 0.9565 0.2902
vn 0.0938 -0.2890 0.9527
vn 0.0464 0.8810 0.4709
vn -0.0286 -0.9565 0.2902
vn -0.0976 0.0975 0.9904
vn -0.0097 0.9951 0.0980
vn -0.0097 -0.9951 0.0980
vn -0.0975 -0.0975 0.9904
vn -0.0286 0.9565 0.2902
vn -0.0938 -0.2890 0.9527
vn -0.0464 0.8810 0.4709
vn -0.0865 -0.4696 0.8786
vn -0.0624 0.7715 0.6332
vn -0.0759 -0.6326 0.7708
vn -0.0759 0.6326 0.7708
vn -0.0624 -0.7715 0.6332
vn -0.0865 0.4696 0.8786
vn -0.0464 -0.8810 0.4709
vn -0.0938 0.2890 0.9527
vn -0.2248 -0.6326 0.7412
vn -0.2248 0.6326 0.7412
vn -0.1847 -0.7715 0.6088
vn -0.2563 0.4696 0.8448
vn -0.1374 -0.8810 0.4528
vn -0.2779 0.2890 0.9161
vn -0.0846 -0.9565 0.2790
vn -0.2889 0.0975 0.9524
vn -0.0286 0.9951 0.0942
vn -0.0286 -0.9951 0.0942
vn -0.2889 -0.0975 0.9524
vn -0.0846 0.9565 0.2790
vn -0.2779 -0.2890 0.9161
vn -0.1374 0.8810 0.4528
vn -0.2563 -0.4696 0.8448
vn -0.1847 0.7715 0.6088
vn -0.0464 0.9951 0.0869
vn -0.0464 -0.9951 0.0869
vn -0.4691 -0.0975 0.8777
vn -0.1374 0.9565 0.2571
vn -0.4513 -0.2890 0.8443
vn -0.2231 0.8810 0.4173
vn -0.4162 -0.4696 0.7786
vn -0.2999 0.7715 0.5611
vn -0.3651 -0.6326 0.6831
vn -0.3651 0.6326 0.6831
vn -0.2999 -0.7715 0.5611
vn -0.4162 0.4696 0.7786
vn -0.2231 -0.8810 0.4173
vn -0.4513 0.2890 0.8443
vn -0.1374 -0.9565 0.2571
vn -0.4691 0.0975 0.8777
vn -0.4913 0.6326 0.5987
vn -0.4036 -0.7715 0.4918
vn -0.5601 0.4696 0.6825
vn -0.3002 -0.8810 0.3658
vn -0.6073 0.2890 0.7400
vn -0.1850 -0.9565 0.2254
vn -0.6314 0.0975 0.7693
vn -0.0625 0.9951 0.0761
vn -0.0625 -0.9951 0.0761
vn -0.6314 -0.0975 0.7693
vn -0.1850 0.9565 0.2254
vn -0.6073 -0.2890 0.7400
vn -0.3002 0.8810 0.3658
vn -0.5601 -0.4696 0.6825
vn -0.4036 0.7715 0.4918
vn -0.4913 -0.6326 0.5987
vn -0.7693 -0.0975 0.6314
vn -0.2254 0.9565 0.1850
vn -0.7400 -0.2890 0.6073
vn -0.3658 0.8810 0.3002
vn -0.6825 -0.4696 0.5601
vn -0.4918 0.7715 0.4036
vn -0.5987 -0.6326 0.4913
vn -0.5987 0.6326 0.4913
vn -0.4918 -0.7715 0.4036
vn -0.6825 0.4696 0.5601
vn -0.3658 -0.8810 0.3002
vn -0.7400 0.2890 0.6073
vn -0.2254 -0.9565 0.1850
vn -0.7693 0.0975 0.6314
vn -0.0761 0.9951 0.0625
vn -0.0761 -0.9951 0.0625
vn -0.5611 -0.7715 0.2999
vn -0.7786 0.4696 0.4162
vn -0.4173 -0.8810 0.2231
vn -0.8443 0.2890 0.4513
vn -0.2571 -0.9565 0.1374
vn -0.2571 -0.9566 0.1374
vn -0.8777 0.0975 0.4691
vn -0.0869 0.9951 0.0464
vn -0.0869 -0.9951 0.0464
vn -0.8777 -0.0975 0.4691
vn -0.2571 0.9565 0.1374
vn -0.8443 -0.2890 0.4513
vn -0.4173 0.8810 0.2230
vn -0.4173 0.8810 0.2231
vn -0.7786 -0.4696 0.4162
vn -0.5611 0.7715 0.2999
vn -0.6831 -0.6326 0.3651
vn -0.6831 0.6326 0.3651
vn -0.2790 0.9565 0.0846
vn -0.9161 -0.2890 0.2779
vn -0.4528 0.8810 0.1374
vn -0.8448 -0.4696 0.2563
vn -0.6088 0.7715 0.1847
vn -0.7412 -0.6326 0.2248
vn -0.7412 0.6326 0.2248
vn -0.6088 -0.7715 0.1847
vn -0.8448 0.4696 0.2563
vn -0.4528 -0.8810 0.1374
vn -0.9161 0.2890 0.2779
vn -0.2790 -0.9565 0.0846
vn -0.9524 0.0975 0.2889
vn -0.0942 0.9951 0.0286
vn -0.0942 -0.9951 0.0286
vn -0.9524 -0.0975 0.2889
vn -0.8786 0.4696 0.0865
vn -0.4709 -0.8810 0.0464
vn -0.9527 0.2890 0.0938
vn -0.2902 -0.9565 0.0286
vn -0.9904 0.0975 0.0975
vn -0.0980 0.9951 0.0097
vn -0.0980 -0.9951 0.0097
vn -0.9904 -0.0975 0.0975
vn -0.2902 0.9565 0.0286
vn -0.9527 -0.2890 0.0938
vn -0.4709 0.8810 0.0464
vn -0.8786 -0.4696 0.0865
vn -0.6332 0.7715 0.0624
vn -0.7708 -0.6326 0.0759
vn -0.7708 0.6326 0.0759
vn -0.6332 -0.7715 0.0624
vn -0.9527 -0.2890 -0.0938
vn -0.4709 0.8810 -0.0464
vn -0.8786 -0.4696 -0.0865
vn -0.6332 0.7715 -0.0624
vn -0.7708 -0.6326 -0.0759
vn -0.7708 0.6326 -0.0759
vn -0.6332 -0.7715 -0.0624
vn -0.8786 0.4696 -0.0865
vn -0.4709 -0.8810 -0.0464
vn -0.9527 0.2890 -0.0938
vn -0.2902 -0.9565 -0.0286
vn -0.9904 0.0975 -0.0976
vn -0.0980 0.9951 -0.0097
vn -0.0980 -0.9951 -0.0097
vn -0.9904 -0.0975 -0.0976
vn -0.9904 -0.0975 -0.0975
vn -0.2902 0.9565 -0.0286
vn -0.4528 -0.8810 -0.1374
vn -0.9161 0.2890 -0.2779
vn -0.2790 -0.9565 -0.0846
vn -0.9524 0.0975 -0.2889
vn -0.0942 0.9951 -0.0286
vn -0.0942 -0.9951 -0.0286
vn -0.9524 -0.0975 -0.2889
vn -0.2790 0.9565 -0.0846
vn -0.9161 -0.2890 -0.2779
vn -0.4528 0.8810 -0.1374
vn -0.8448 -0.4696 -0.2563
vn -0.6088 0.7715 -0.1847
vn -0.7412 -0.6326 -0.2248
vn -0.7412 0.6326 -0.2248
vn -0.6088 -0.7715 -0.1847
vn -0.8448 0.4696 -0.2563
vn -0.7786 -0.4696 -0.4162
vn -0.5611 0.7715 -0.2999
vn -0.6831 -0.6326 -0.3651
vn -0.6831 0.6326 -0.3651
vn -0.5611 -0.7715 -0.2999
vn -0.7786 0.4696 -0.4162
vn -0.4173 -0.8810 -0.2231
vn -0.4173 -0.8810 -0.2230
vn -0.8443 0.2890 -0.4513
vn -0.2571 -0.9565 -0.1374
vn -0.8777 0.0975 -0.4691
vn -0.0869 0.9951 -0.0464
vn -0.0869 -0.9951 -0.0464
vn -0.8777 -0.0975 -0.4691
vn -0.2571 0.9565 -0.1374
vn -0.8443 -0.2890 -0.4513
vn -0.4173 0.8810 -0.2231
vn -0.4173 0.8810 -0.2230
vn -0.2254 -0.9565 -0.1850
vn -0.7693 0.0975 -0.6314
vn -0.0761 0.9951 -0.0625
vn -0.0761 -0.9951 -0.0625
vn -0.7693 -0.0975 -0.6314
vn -0.2254 0.9565 -0.1850
vn -0.7400 -0.2890 -0.6073
vn -0.3658 0.8810 -0.3002
vn -0.6825 -0.4696 -0.5601
vn -0.4918 0.7715 -0.4036
vn -0.5987 -0.6326 -0.4913
vn -0.5987 0.6326 -0.4913
vn -0.4918 -0.7715 -0.4036
vn -0.6825 0.4696 -0.5601
vn -0.3658 -0.8810 -0.3002
vn -0.7400 0.2890 -0.6073
vn -0.4036 0.7715 -0.4918
vn -0.4913 -0.6326 -0.5987
vn -0.4913 0.6326 -0.5987
vn -0.4036 -0.7715 -0.4918
vn -0.5601 0.4696 -0.6825
vn -0.3002 -0.8810 -0.3658
vn -0.6073 0.2890 -0.7400
vn -0.1850 -0.9565 -0.2254
vn -0.6314 0.0975 -0.7693
vn -0.0625 0.9951 -0.0761
vn -0.0625 -0.9951 -0.0761
vn -0.6314 -0.0975 -0.7693
vn -0.1850 0.9565 -0.2254
vn -0.6073 -0.2890 -0.7400
vn -0.3002 0.8810 -0.3658
vn -0.5601 -0.4696 -0.6825
vn -0.4691 0.0975 -0.8777
vn -0.0464 0.9951 -0.0869
vn -0.0464 -0.9951 -0.0869
vn -0.4691 -0.0975 -0.8777
vn -0.1374 0.9565 -0.2571
vn -0.4513 -0.2890 -0.8443
vn -0.2230 0.8810 -0.4173
vn -0.2231 0.8810 -0.4173
vn -0.4162 -0.4696 -0.7786
vn -0.2999 0.7715 -0.5611
vn -0.3651 -0.6326 -0.6831
vn -0.3651 0.6326 -0.6831
vn -0.2999 -0.7715 -0.5611
vn -0.4162 0.4696 -0.7786
vn -0.2231 -0.8810 -0.4173
vn -0.4513 0.2890 -0.8443
vn -0.1374 -0.9565 -0.2571
vn -0.2248 -0.6326 -0.7412
vn -0.2248 0.6326 -0.7412
vn -0.1847 -0.7715 -0.6088
vn -0.2563 0.4696 -0.8448
vn -0.1374 -0.8810 -0.4528
vn -0.2779 0.2890 -0.9161
vn -0.0846 -0.9565 -0.2790
vn -0.2889 0.0975 -0.9524
vn -0.0286 0.9951 -0.0942
vn -0.0286 -0.9951 -0.0942
vn -0.2889 -0.0975 -0.9524
vn -0.0846 0.9565 -0.2790
vn -0.2779 -0.2890 -0.9161
vn -0.1374 0.8810 -0.4528
vn -0.2563 -0.4696 -0.8448
vn -0.1847 0.7715 -0.6088
vn -0.0097 0.9951 -0.0980
vn -0.0097 -0.9951 -0.0980
vn -0.0976 -0.0975 -0.9904
vn -0.0286 0.9565 -0.2902
vn -0.0938 -0.2890 -0.9527
vn -0.0464 0.8810 -0.4709
vn -0.0865 -0.4696 -0.8786
vn -0.0624 0.7715 -0.6332
vn -0.0759 -0.6326 -0.7708
vn -0.0759 0.6326 -0.7708
vn -0.0624 -0.7715 -0.6332
vn -0.0865 0.4696 -0.8786
vn -0.0464 -0.8810 -0.4709
vn -0.0938 0.2890 -0.9527
vn -0.0286 -0.9565 -0.2902
vn -0.0976 0.0975 -0.9904
vn 0.0975 -0.0975 -0.9904
vn 0.9904 0.0975 0.0975
vn 0.0976 0.0975 0.9904
vn -0.0975 0.0975 0.9904
vn -0.0976 -0.0975 0.9904
vn -0.9904 0.0975 -0.0975
vn -0.2230 -0.8810 -0.4173
vt 0.750000 0.562500
vt 0.718750 0.500000
vt 0.750000 0.500000
vt 0.750000 0.937500
vt 0.734375 1.000000
vt 0.718750 0.937500
vt 0.734375 0.000000
vt 0.750000 0.062500
vt 0.718750 0.062500
vt 0.718750 0.437500
vt 0.750000 0.437500
vt 0.750000 0.875000
vt 0.718750 0.875000
vt 0.718750 0.375000
vt 0.750000 0.375000
vt 0.750000 0.812500
vt 0.718750 0.812500
vt 0.718750 0.312500
vt 0.750000 0.312500
vt 0.750000 0.750000
vt 0.718750 0.750000
vt 0.750000 0.250000
vt 0.718750 0.250000
vt 0.718750 0.687500
vt 0.750000 0.687500
vt 0.718750 0.187500
vt 0.750000 0.187500
vt 0.750000 0.625000
vt 0.718750 0.625000
vt 0.718750 0.125000
vt 0.750000 0.125000
vt 0.718750 0.562500
vt 0.687500 0.625000
vt 0.687500 0.562500
vt 0.687500 0.062500
vt 0.687500 0.500000
vt 0.703125 1.000000
vt 0.687500 0.937500
vt 0.703125 0.000000
vt 0.687500 0.437500
vt 0.687500 0.875000
vt 0.687500 0.375000
vt 0.687500 0.812500
vt 0.687500 0.312500
vt 0.687500 0.750000
vt 0.687500 0.250000
vt 0.687500 0.687500
vt 0.687500 0.187500
vt 0.687500 0.125000
vt 0.656250 0.375000
vt 0.656250 0.312500
vt 0.656250 0.750000
vt 0.656250 0.250000
vt 0.656250 0.687500
vt 0.656250 0.187500
vt 0.656250 0.625000
vt 0.656250 0.125000
vt 0.656250 0.562500
vt 0.656250 0.062500
vt 0.656250 0.500000
vt 0.671875 1.000000
vt 0.656250 0.937500
vt 0.671875 0.000000
vt 0.656250 0.437500
vt 0.656250 0.875000
vt 0.656250 0.812500
vt 0.625000 0.125000
vt 0.625000 0.062500
vt 0.625000 0.562500
vt 0.625000 0.500000
vt 0.640625 1.000000
vt 0.625000 0.937500
vt 0.640625 0.000000
vt 0.625000 0.437500
vt 0.625000 0.875000
vt 0.625000 0.375000
vt 0.625000 0.812500
vt 0.625000 0.312500
vt 0.625000 0.750000
vt 0.625000 0.250000
vt 0.625000 0.687500
vt 0.625000 0.187500
vt 0.625000 0.625000
vt 0.593750 0.750000
vt 0.593750 0.250000
vt 0.593750 0.687500
vt 0.593750 0.187500
vt 0.593750 0.625000
vt 0.593750 0.125000
vt 0.593750 0.562500
vt 0.593750 0.062500
vt 0.593750 0.500000
vt 0.609375 1.000000
vt 0.593750 0.937500
vt 0.609375 0.000000
vt 0.593750 0.437500
vt 0.593750 0.875000
vt 0.593750 0.375000
vt 0.593750 0.812500
vt 0.593750 0.312500
vt 0.562500 0.562500
vt 0.562500 0.500000
vt 0.578125 1.000000
vt 0.562500 0.937500
vt 0.578125 0.000000
vt 0.562500 0.062500
vt 0.562500 0.437500
vt 0.562500 0.875000
vt 0.562500 0.375000
vt 0.562500 0.812500
vt 0.562500 0.312500
vt 0.562500 0.750000
vt 0.562500 0.250000
vt 0.562500 0.687500
vt 0.562500 0.187500
vt 0.562500 0.625000
vt 0.562500 0.125000
vt 0.531250 0.250000
vt 0.531250 0.750000
vt 0.531250 0.687500
vt 0.531250 0.187500
vt 0.531250 0.625000
vt 0.531250 0.125000
vt 0.531250 0.562500
vt 0.531250 0.062500
vt 0.531250 0.500000
vt 0.546875 1.000000
vt 0.531250 0.937500
vt 0.546875 0.000000
vt 0.531250 0.437500
vt 0.531250 0.875000
vt 0.531250 0.375000
vt 0.531250 0.812500
vt 0.531250 0.312500
vt 0.515625 0.000000
vt 0.500000 0.062500
vt 0.500000 0.437500
vt 0.500000 0.875000
vt 0.500000 0.375000
vt 0.500000 0.812500
vt 0.500000 0.312500
vt 0.500000 0.750000
vt 0.500000 0.250000
vt 0.500000 0.687500
vt 0.500000 0.187500
vt 0.500000 0.625000
vt 0.500000 0.125000
vt 0.500000 0.562500
vt 0.500000 0.500000
vt 0.515625 1.000000
vt 0.500000 0.937500
vt 0.468750 0.250000
vt 0.468750 0.187500
vt 0.468750 0.625000
vt 0.468750 0.125000
vt 0.468750 0.562500
vt 0.468750 0.062500
vt 0.468750 0.500000
vt 0.484375 1.000000
vt 0.468750 0.937500
vt 0.484375 0.000000
vt 0.468750 0.437500
vt 0.468750 0.875000
vt 0.468750 0.375000
vt 0.468750 0.812500
vt 0.468750 0.312500
vt 0.468750 0.750000
vt 0.468750 0.687500
vt 0.437500 0.875000
vt 0.437500 0.375000
vt 0.437500 0.812500
vt 0.437500 0.312500
vt 0.437500 0.750000
vt 0.437500 0.250000
vt 0.437500 0.687500
vt 0.437500 0.187500
vt 0.437500 0.625000
vt 0.437500 0.125000
vt 0.437500 0.562500
vt 0.437500 0.062500
vt 0.437500 0.500000
vt 0.453125 1.000000
vt 0.437500 0.937500
vt 0.453125 0.000000
vt 0.437500 0.437500
vt 0.406250 0.625000
vt 0.406250 0.187500
vt 0.406250 0.125000
vt 0.406250 0.562500
vt 0.406250 0.062500
vt 0.406250 0.500000
vt 0.421875 1.000000
vt 0.406250 0.937500
vt 0.421875 0.000000
vt 0.406250 0.437500
vt 0.406250 0.875000
vt 0.406250 0.375000
vt 0.406250 0.812500
vt 0.406250 0.312500
vt 0.406250 0.750000
vt 0.406250 0.250000
vt 0.406250 0.687500
vt 0.375000 0.375000
vt 0.375000 0.812500
vt 0.375000 0.312500
vt 0.375000 0.750000
vt 0.375000 0.250000
vt 0.375000 0.687500
vt 0.375000 0.187500
vt 0.375000 0.625000
vt 0.375000 0.125000
vt 0.375000 0.562500
vt 0.375000 0.062500
vt 0.375000 0.500000
vt 0.390625 1.000000
vt 0.375000 0.937500
vt 0.390625 0.000000
vt 0.375000 0.437500
vt 0.375000 0.875000
vt 0.343750 0.125000
vt 0.343750 0.625000
vt 0.343750 0.562500
vt 0.343750 0.062500
vt 0.343750 0.500000
vt 0.359375 1.000000
vt 0.343750 0.937500
vt 0.359375 0.000000
vt 0.343750 0.437500
vt 0.343750 0.875000
vt 0.343750 0.375000
vt 0.343750 0.812500
vt 0.343750 0.312500
vt 0.343750 0.750000
vt 0.343750 0.250000
vt 0.343750 0.687500
vt 0.343750 0.187500
vt 0.312500 0.812500
vt 0.312500 0.375000
vt 0.312500 0.312500
vt 0.312500 0.750000
vt 0.312500 0.250000
vt 0.312500 0.687500
vt 0.312500 0.187500
vt 0.312500 0.625000
vt 0.312500 0.125000
vt 0.312500 0.562500
vt 0.312500 0.062500
vt 0.312500 0.500000
vt 0.328125 1.000000
vt 0.312500 0.937500
vt 0.328125 0.000000
vt 0.312500 0.437500
vt 0.312500 0.875000
vt 0.281250 0.625000
vt 0.281250 0.562500
vt 0.281250 0.125000
vt 0.281250 0.062500
vt 0.281250 0.500000
vt 0.296875 1.000000
vt 0.281250 0.937500
vt 0.296875 0.000000
vt 0.281250 0.437500
vt 0.281250 0.875000
vt 0.281250 0.375000
vt 0.281250 0.812500
vt 0.281250 0.312500
vt 0.281250 0.750000
vt 0.281250 0.250000
vt 0.281250 0.687500
vt 0.281250 0.187500
vt 0.250000 0.375000
vt 0.250000 0.312500
vt 0.250000 0.750000
vt 0.250000 0.250000
vt 0.250000 0.687500
vt 0.250000 0.187500
vt 0.250000 0.625000
vt 0.250000 0.125000
vt 0.250000 0.562500
vt 0.250000 0.062500
vt 0.250000 0.500000
vt 0.265625 1.000000
vt 0.250000 0.937500
vt 0.265625 0.000000
vt 0.250000 0.437500
vt 0.250000 0.875000
vt 0.250000 0.812500
vt 0.218750 0.062500
vt 0.218750 0.562500
vt 0.218750 0.500000
vt 0.234375 1.000000
vt 0.218750 0.937500
vt 0.234375 0.000000
vt 0.218750 0.437500
vt 0.218750 0.875000
vt 0.218750 0.375000
vt 0.218750 0.812500
vt 0.218750 0.312500
vt 0.218750 0.750000
vt 0.218750 0.250000
vt 0.218750 0.687500
vt 0.218750 0.187500
vt 0.218750 0.625000
vt 0.218750 0.125000
vt 0.187500 0.250000
vt 0.187500 0.750000
vt 0.187500 0.687500
vt 0.187500 0.187500
vt 0.187500 0.625000
vt 0.187500 0.125000
vt 0.187500 0.562500
vt 0.187500 0.062500
vt 0.187500 0.500000
vt 0.203125 1.000000
vt 0.187500 0.937500
vt 0.203125 0.000000
vt 0.187500 0.437500
vt 0.187500 0.875000
vt 0.187500 0.375000
vt 0.187500 0.812500
vt 0.187500 0.312500
vt 0.171875 1.000000
vt 0.156250 0.937500
vt 0.171875 0.000000
vt 0.156250 0.062500
vt 0.156250 0.437500
vt 0.156250 0.875000
vt 0.156250 0.375000
vt 0.156250 0.812500
vt 0.156250 0.312500
vt 0.156250 0.750000
vt 0.156250 0.250000
vt 0.156250 0.687500
vt 0.156250 0.187500
vt 0.156250 0.625000
vt 0.156250 0.125000
vt 0.156250 0.562500
vt 0.156250 0.500000
vt 0.125000 0.750000
vt 0.125000 0.687500
vt 0.125000 0.250000
vt 0.125000 0.187500
vt 0.125000 0.625000
vt 0.125000 0.125000
vt 0.125000 0.562500
vt 0.125000 0.062500
vt 0.125000 0.500000
vt 0.140625 1.000000
vt 0.125000 0.937500
vt 0.140625 0.000000
vt 0.125000 0.437500
vt 0.125000 0.875000
vt 0.125000 0.375000
vt 0.125000 0.812500
vt 0.125000 0.312500
vt 0.093750 0.437500
vt 0.093750 0.937500
vt 0.093750 0.875000
vt 0.093750 0.375000
vt 0.093750 0.812500
vt 0.093750 0.312500
vt 0.093750 0.750000
vt 0.093750 0.250000
vt 0.093750 0.687500
vt 0.093750 0.187500
vt 0.093750 0.625000
vt 0.093750 0.125000
vt 0.093750 0.562500
vt 0.093750 0.062500
vt 0.093750 0.500000
vt 0.109375 1.000000
vt 0.109375 0.000000
vt 0.062500 0.250000
vt 0.062500 0.187500
vt 0.062500 0.625000
vt 0.062500 0.125000
vt 0.062500 0.562500
vt 0.062500 0.062500
vt 0.062500 0.500000
vt 0.078125 1.000000
vt 0.062500 0.937500
vt 0.078125 0.000000
vt 0.062500 0.437500
vt 0.062500 0.875000
vt 0.062500 0.375000
vt 0.062500 0.812500
vt 0.062500 0.312500
vt 0.062500 0.750000
vt 0.062500 0.687500
vt 0.031250 0.875000
vt 0.031250 0.375000
vt 0.031250 0.812500
vt 0.031250 0.312500
vt 0.031250 0.750000
vt 0.031250 0.250000
vt 0.031250 0.687500
vt 0.031250 0.187500
vt 0.031250 0.625000
vt 0.031250 0.125000
vt 0.031250 0.562500
vt 0.031250 0.062500
vt 0.031250 0.500000
vt 0.046875 1.000000
vt 0.031250 0.937500
vt 0.046875 0.000000
vt 0.031250 0.437500
vt 0.000000 0.625000
vt 0.000000 0.125000
vt 0.000000 0.562500
vt 0.000000 0.062500
vt 0.000000 0.500000
vt 0.015625 1.000000
vt 0.000000 0.937500
vt 0.015625 0.000000
vt 0.000000 0.437500
vt 0.000000 0.875000
vt 0.000000 0.375000
vt 0.000000 0.812500
vt 0.000000 0.312500
vt 0.000000 0.750000
vt 0.000000 0.250000
vt 0.000000 0.687500
vt 0.000000 0.187500
vt 1.000000 0.437500
vt 0.968750 0.375000
vt 1.000000 0.375000
vt 1.000000 0.812500
vt 0.968750 0.875000
vt 0.968750 0.812500
vt 1.000000 0.312500
vt 0.968750 0.312500
vt 0.968750 0.750000
vt 1.000000 0.750000
vt 0.968750 0.250000
vt 1.000000 0.250000
vt 1.000000 0.687500
vt 0.968750 0.687500
vt 1.000000 0.187500
vt 0.968750 0.187500
vt 0.968750 0.625000
vt 1.000000 0.625000
vt 0.968750 0.125000
vt 1.000000 0.125000
vt 1.000000 0.562500
vt 0.968750 0.562500
vt 0.968750 0.062500
vt 1.000000 0.062500
vt 1.000000 0.500000
vt 0.968750 0.500000
vt 1.000000 0.937500
vt 0.984375 1.000000
vt 0.968750 0.937500
vt 0.984375 0.000000
vt 0.968750 0.437500
vt 1.000000 0.875000
vt 0.937500 0.125000
vt 0.937500 0.625000
vt 0.937500 0.562500
vt 0.937500 0.062500
vt 0.937500 0.500000
vt 0.953125 1.000000
vt 0.937500 0.937500
vt 0.953125 0.000000
vt 0.937500 0.437500
vt 0.937500 0.875000
vt 0.937500 0.375000
vt 0.937500 0.812500
vt 0.937500 0.312500
vt 0.937500 0.750000
vt 0.937500 0.250000
vt 0.937500 0.687500
vt 0.937500 0.187500
vt 0.906250 0.375000
vt 0.906250 0.312500
vt 0.906250 0.750000
vt 0.906250 0.250000
vt 0.906250 0.687500
vt 0.906250 0.187500
vt 0.906250 0.625000
vt 0.906250 0.125000
vt 0.906250 0.562500
vt 0.906250 0.062500
vt 0.906250 0.500000
vt 0.921875 1.000000
vt 0.906250 0.937500
vt 0.921875 0.000000
vt 0.906250 0.437500
vt 0.906250 0.875000
vt 0.906250 0.812500
vt 0.875000 0.062500
vt 0.875000 0.562500
vt 0.875000 0.500000
vt 0.890625 1.000000
vt 0.875000 0.937500
vt 0.890625 0.000000
vt 0.875000 0.437500
vt 0.875000 0.875000
vt 0.875000 0.375000
vt 0.875000 0.812500
vt 0.875000 0.312500
vt 0.875000 0.750000
vt 0.875000 0.250000
vt 0.875000 0.687500
vt 0.875000 0.187500
vt 0.875000 0.625000
vt 0.875000 0.125000
vt 0.843750 0.750000
vt 0.843750 0.250000
vt 0.843750 0.687500
vt 0.843750 0.187500
vt 0.843750 0.625000
vt 0.843750 0.125000
vt 0.843750 0.562500
vt 0.843750 0.062500
vt 0.843750 0.500000
vt 0.859375 1.000000
vt 0.843750 0.937500
vt 0.859375 0.000000
vt 0.843750 0.437500
vt 0.843750 0.875000
vt 0.843750 0.375000
vt 0.843750 0.812500
vt 0.843750 0.312500
vt 0.812500 0.562500
vt 0.812500 0.500000
vt 0.828125 1.000000
vt 0.812500 0.937500
vt 0.828125 0.000000
vt 0.812500 0.062500
vt 0.812500 0.437500
vt 0.812500 0.875000
vt 0.812500 0.375000
vt 0.812500 0.812500
vt 0.812500 0.312500
vt 0.812500 0.750000
vt 0.812500 0.250000
vt 0.812500 0.687500
vt 0.812500 0.187500
vt 0.812500 0.625000
vt 0.812500 0.125000
vt 0.781250 0.250000
vt 0.781250 0.750000
vt 0.781250 0.687500
vt 0.781250 0.187500
vt 0.781250 0.625000
vt 0.781250 0.125000
vt 0.781250 0.562500
vt 0.781250 0.062500
vt 0.781250 0.500000
vt 0.796875 1.000000
vt 0.781250 0.937500
vt 0.796875 0.000000
vt 0.781250 0.437500
vt 0.781250 0.875000
vt 0.781250 0.375000
vt 0.781250 0.812500
vt 0.781250 0.312500
vt 0.765625 1.000000
vt 0.765625 0.000000
s 1
usemtl マテリアル
f 3/1/1 14/2/1 4/3/2
f 474/4/3 82/5/3 7/6/3
f 308/7/4 482/8/4 21/9/4
f 4/3/5 15/10/5 5/11/5
f 475/12/6 7/6/6 8/13/6
f 5/11/7 16/14/7 478/15/7
f 1/16/8 8/13/8 9/17/8
f 478/15/9 17/18/9 6/19/9
f 476/20/10 9/17/10 10/21/10
f 479/22/11 17/18/11 18/23/11
f 476/20/12 11/24/12 2/25/12
f 479/22/13 19/26/13 480/27/13
f 477/28/14 11/24/14 12/29/14
f 480/27/15 20/30/15 481/31/15
f 3/1/16 12/29/16 13/32/16
f 481/31/17 21/9/17 482/8/17
f 13/32/18 27/33/18 28/34/18
f 20/30/19 36/35/19 21/9/19
f 13/32/20 29/36/20 14/2/20
f 7/6/21 82/37/21 22/38/21
f 308/39/22 21/9/22 36/35/22
f 14/2/23 30/40/23 15/10/23
f 7/6/24 23/41/24 8/13/24
f 15/10/25 31/42/25 16/14/25
f 8/13/26 24/43/26 9/17/26
f 17/18/27 31/42/27 32/44/27
f 9/17/28 25/45/28 10/21/28
f 18/23/29 32/44/29 33/46/29
f 10/21/30 26/47/30 11/24/30
f 19/26/31 33/46/31 34/48/31
f 11/24/32 27/33/32 12/29/32
f 20/30/33 34/48/33 35/49/33
f 32/44/34 46/50/34 47/51/34
f 24/43/35 40/52/35 25/45/35
f 33/46/36 47/51/36 48/53/36
f 25/45/37 41/54/37 26/47/37
f 34/48/38 48/53/38 49/55/38
f 26/47/39 42/56/39 27/33/39
f 35/49/40 49/55/40 50/57/40
f 28/34/41 42/56/41 43/58/41
f 36/35/42 50/57/42 51/59/42
f 29/36/43 43/58/43 44/60/43
f 22/38/44 82/61/44 37/62/44
f 308/63/45 36/35/45 51/59/45
f 29/36/46 45/64/46 30/40/46
f 22/38/47 38/65/47 23/41/47
f 30/40/48 46/50/48 31/42/48
f 23/41/49 39/66/49 24/43/50
f 51/59/51 65/67/51 66/68/51
f 44/60/52 58/69/52 59/70/52
f 37/62/53 82/71/53 52/72/53
f 308/73/54 51/59/54 66/68/54
f 44/60/55 60/74/55 45/64/55
f 37/62/56 53/75/56 38/65/56
f 45/64/57 61/76/57 46/50/57
f 38/65/58 54/77/58 39/66/58
f 47/51/59 61/76/59 62/78/59
f 39/66/60 55/79/60 40/52/60
f 47/51/61 63/80/61 48/53/61
f 41/54/62 55/79/62 56/81/62
f 49/55/63 63/80/63 64/82/63
f 41/54/64 57/83/64 42/56/64
f 50/57/65 64/82/65 65/67/65
f 43/58/66 57/83/66 58/69/66
f 54/77/67 70/84/67 55/79/67
f 62/78/68 78/85/68 63/80/68
f 56/81/69 70/84/69 71/86/69
f 64/82/70 78/85/70 79/87/70
f 56/81/71 72/88/71 57/83/71
f 64/82/72 80/89/72 65/67/72
f 58/69/73 72/88/73 73/90/73
f 65/67/74 81/91/74 66/68/74
f 59/70/75 73/90/75 74/92/75
f 52/72/76 82/93/76 67/94/76
f 308/95/77 66/68/77 81/91/77
f 59/70/78 75/96/78 60/74/78
f 53/75/79 67/94/79 68/97/79
f 60/74/80 76/98/80 61/76/80
f 54/77/81 68/97/81 69/99/81
f 62/78/82 76/98/82 77/100/82
f 74/92/83 89/101/83 90/102/83
f 67/94/84 82/103/84 83/104/84
f 308/105/85 81/91/85 97/106/85
f 74/92/86 91/107/86 75/96/86
f 67/94/87 84/108/87 68/97/87
f 75/96/88 92/109/88 76/98/88
f 68/97/89 85/110/89 69/99/89
f 77/100/90 92/109/90 93/111/90
f 69/99/91 86/112/91 70/84/91
f 77/100/92 94/113/92 78/85/92
f 71/86/93 86/112/93 87/114/93
f 79/87/94 94/113/94 95/115/94
f 71/86/95 88/116/95 72/88/95
f 80/89/96 95/115/96 96/117/96
f 73/90/97 88/116/97 89/101/97
f 81/91/98 96/117/98 97/106/98
f 93/111/99 109/118/99 94/113/99
f 87/114/100 101/119/100 102/120/100
f 95/115/101 109/118/101 110/121/101
f 87/114/102 103/122/102 88/116/102
f 95/115/103 111/123/103 96/117/103
f 89/101/104 103/122/104 104/124/104
f 96/117/105 112/125/105 97/106/105
f 90/102/106 104/124/106 105/126/106
f 83/104/107 82/127/107 98/128/107
f 308/129/108 97/106/108 112/125/108
f 90/102/109 106/130/109 91/107/109
f 83/104/110 99/131/110 84/108/110
f 91/107/111 107/132/111 92/109/111
f 85/110/112 99/131/112 100/133/112
f 93/111/113 107/132/113 108/134/113
f 85/110/114 101/119/114 86/112/114
f 308/135/115 112/125/115 127/136/115
f 105/126/116 121/137/116 106/130/116
f 98/128/117 114/138/117 99/131/117
f 106/130/118 122/139/118 107/132/118
f 99/131/119 115/140/119 100/133/119
f 108/134/120 122/139/120 123/141/120
f 100/133/121 116/142/121 101/119/121
f 108/134/122 124/143/122 109/118/122
f 102/120/123 116/142/123 117/144/123
f 110/121/124 124/143/124 125/145/124
f 102/120/125 118/146/125 103/122/125
f 111/123/126 125/145/126 126/147/126
f 104/124/127 118/146/127 119/148/127
f 111/123/128 127/136/128 112/125/128
f 105/126/129 119/148/129 120/149/129
f 98/128/130 82/150/130 113/151/130
f 125/145/131 139/152/131 140/153/131
f 117/144/132 133/154/132 118/146/132
f 125/145/133 141/155/133 126/147/133
f 119/148/134 133/154/134 134/156/134
f 126/147/135 142/157/135 127/136/135
f 120/149/136 134/156/136 135/158/136
f 113/151/137 82/159/137 128/160/137
f 308/161/138 127/136/138 142/157/138
f 120/149/139 136/162/139 121/137/140
f 114/138/141 128/160/141 129/163/141
f 121/137/142 137/164/142 122/139/142
f 115/140/143 129/163/143 130/165/143
f 123/141/144 137/164/144 138/166/144
f 115/140/145 131/167/145 116/142/145
f 123/141/146 139/152/146 124/143/146
f 117/144/147 131/167/147 132/168/147
f 128/160/148 144/169/148 129/163/148
f 136/162/149 152/170/149 137/164/149
f 129/163/150 145/171/150 130/165/150
f 138/166/151 152/170/151 153/172/151
f 130/165/152 146/173/152 131/167/152
f 138/166/153 154/174/153 139/152/153
f 132/168/154 146/173/154 147/175/154
f 140/153/155 154/174/155 155/176/155
f 132/168/156 148/177/156 133/154/156
f 141/155/157 155/176/157 156/178/157
f 134/156/158 148/177/158 149/179/158
f 141/155/159 157/180/159 142/157/159
f 135/158/160 149/179/160 150/181/160
f 128/160/161 82/182/161 143/183/161
f 308/184/162 142/157/162 157/180/162
f 135/158/163 151/185/163 136/162/163
f 147/175/164 163/186/164 148/177/164
f 156/178/165 170/187/165 171/188/165
f 149/179/166 163/186/166 164/189/166
f 157/180/167 171/188/167 172/190/167
f 150/181/168 164/189/168 165/191/168
f 143/183/169 82/192/169 158/193/169
f 308/194/170 157/180/170 172/190/170
f 150/181/171 166/195/171 151/185/171
f 143/183/172 159/196/172 144/169/172
f 151/185/173 167/197/173 152/170/173
f 144/169/174 160/198/174 145/171/174
f 153/172/175 167/197/175 168/199/175
f 145/171/176 161/200/176 146/173/176
f 153/172/177 169/201/177 154/174/177
f 147/175/178 161/200/178 162/202/178
f 155/176/179 169/201/179 170/187/179
f 166/195/180 182/203/180 167/197/180
f 159/196/181 175/204/181 160/198/181
f 168/199/182 182/203/182 183/205/182
f 160/198/183 176/206/183 161/200/183
f 168/199/184 184/207/184 169/201/184
f 162/202/185 176/206/185 177/208/185
f 170/187/186 184/207/186 185/209/186
f 162/202/187 178/210/187 163/186/187
f 171/188/188 185/209/188 186/211/188
f 164/189/189 178/210/189 179/212/189
f 172/190/190 186/211/190 187/213/190
f 165/191/191 179/212/191 180/214/191
f 158/193/192 82/215/192 173/216/192
f 308/217/193 172/190/193 187/213/193
f 165/191/194 181/218/194 166/195/194
f 158/193/195 174/219/195 159/196/195
f 185/209/196 201/220/196 186/211/196
f 179/212/197 193/221/197 194/222/197
f 186/211/198 202/223/198 187/213/198
f 180/214/199 194/222/199 195/224/199
f 173/216/200 82/225/200 188/226/200
f 308/227/201 187/213/201 202/223/201
f 180/214/202 196/228/202 181/218/202
f 174/219/203 188/226/203 189/229/203
f 181/218/204 197/230/204 182/203/204
f 175/204/205 189/229/205 190/231/205
f 183/205/206 197/230/206 198/232/206
f 175/204/207 191/233/207 176/206/207
f 183/205/208 199/234/208 184/207/208
f 177/208/209 191/233/209 192/235/209
f 185/209/210 199/234/210 200/236/210
f 177/208/211 193/221/211 178/210/211
f 189/229/212 205/237/212 190/231/212
f 198/232/213 212/238/213 213/239/213
f 190/231/214 206/240/214 191/233/214
f 198/232/215 214/241/215 199/234/215
f 192/235/216 206/240/216 207/242/216
f 200/236/217 214/241/217 215/243/217
f 192/235/218 208/244/218 193/221/218
f 201/220/219 215/243/219 216/245/219
f 194/222/220 208/244/220 209/246/220
f 202/223/221 216/245/221 217/247/221
f 195/224/222 209/246/222 210/248/222
f 188/226/223 82/249/223 203/250/223
f 308/251/224 202/223/224 217/247/224
f 195/224/225 211/252/225 196/228/225
f 188/226/226 204/253/226 189/229/226
f 196/228/227 212/238/227 197/230/227
f 209/246/228 223/254/228 224/255/228
f 217/247/229 231/256/229 232/257/229
f 210/248/230 224/255/230 225/258/230
f 203/250/231 82/259/231 218/260/231
f 308/261/232 217/247/232 232/257/232
f 210/248/233 226/262/233 211/252/233
f 203/250/234 219/263/234 204/253/234
f 211/252/235 227/264/235 212/238/235
f 204/253/236 220/265/236 205/237/236
f 213/239/237 227/264/237 228/266/237
f 205/237/238 221/267/238 206/240/238
f 213/239/239 229/268/239 214/241/239
f 207/242/240 221/267/240 222/269/240
f 215/243/241 229/268/241 230/270/241
f 207/242/242 223/254/242 208/244/242
f 216/245/243 230/270/243 231/256/243
f 228/266/244 242/271/244 243/272/244
f 220/265/245 236/273/245 221/267/245
f 228/266/246 244/274/246 229/268/246
f 222/269/247 236/273/247 237/275/247
f 230/270/248 244/274/248 245/276/248
f 222/269/249 238/277/249 223/254/249
f 231/256/250 245/276/250 246/278/250
f 224/255/251 238/277/251 239/279/251
f 231/256/252 247/280/252 232/257/252
f 225/258/253 239/279/253 240/281/253
f 218/260/254 82/282/254 233/283/254
f 308/284/255 232/257/255 247/280/255
f 225/258/256 241/285/256 226/262/256
f 219/263/257 233/283/257 234/286/257
f 226/262/258 242/271/258 227/264/258
f 219/263/259 235/287/259 220/265/259
f 246/278/260 262/288/260 247/280/260
f 240/281/261 254/289/261 255/290/261
f 233/283/262 82/291/262 248/292/262
f 308/293/263 247/280/263 262/288/263
f 240/281/264 256/294/264 241/285/264
f 234/286/265 248/292/265 249/295/265
f 241/285/266 257/296/266 242/271/266
f 235/287/267 249/295/267 250/297/267
f 243/272/268 257/296/268 258/298/268
f 235/287/269 251/299/269 236/273/269
f 243/272/270 259/300/270 244/274/270
f 237/275/271 251/299/271 252/301/271
f 245/276/272 259/300/272 260/302/272
f 237/275/273 253/303/273 238/277/273
f 245/276/274 261/304/274 246/278/274
f 239/279/275 253/303/275 254/289/275
f 258/298/276 274/305/276 259/300/276
f 252/301/277 266/306/277 267/307/277
f 260/302/278 274/305/278 275/308/278
f 252/301/279 268/309/279 253/303/279
f 261/304/280 275/308/280 276/310/280
f 254/289/281 268/309/281 269/311/281
f 261/304/282 277/312/282 262/288/282
f 255/290/283 269/311/283 270/313/283
f 248/292/284 82/314/284 263/315/284
f 308/316/285 262/288/285 277/312/285
f 255/290/286 271/317/286 256/294/286
f 249/295/287 263/315/287 264/318/287
f 256/294/288 272/319/288 257/296/288
f 249/295/289 265/320/289 250/297/289
f 258/298/290 272/319/290 273/321/290
f 250/297/291 266/306/291 251/299/291
f 263/315/292 82/322/292 278/323/292
f 308/324/293 277/312/293 292/325/293
f 270/313/294 286/326/294 271/317/294
f 263/315/295 279/327/295 264/318/295
f 271/317/296 287/328/296 272/319/296
f 264/318/297 280/329/297 265/320/297
f 273/321/298 287/328/298 288/330/298
f 265/320/299 281/331/299 266/306/299
f 273/321/300 289/332/300 274/305/300
f 267/307/301 281/331/301 282/333/301
f 275/308/302 289/332/302 290/334/302
f 267/307/303 283/335/303 268/309/303
f 275/308/304 291/336/304 276/310/304
f 269/311/305 283/335/305 284/337/305
f 276/310/306 292/325/306 277/312/306
f 270/313/307 284/337/307 285/338/307
f 282/333/308 296/339/308 297/340/308
f 290/334/309 304/341/309 305/342/309
f 282/333/310 298/343/310 283/335/310
f 290/334/311 306/344/311 291/336/311
f 284/337/312 298/343/312 299/345/312
f 292/325/313 306/344/313 307/346/313
f 285/338/314 299/345/314 300/347/314
f 278/323/315 82/348/315 293/349/315
f 308/350/316 292/325/316 307/346/316
f 285/338/317 301/351/317 286/326/317
f 278/323/318 294/352/318 279/327/318
f 286/326/319 302/353/319 287/328/319
f 280/329/320 294/352/320 295/354/320
f 288/330/321 302/353/321 303/355/321
f 280/329/322 296/339/322 281/331/322
f 288/330/323 304/341/323 289/332/323
f 300/347/324 317/356/324 301/351/324
f 294/352/325 309/357/325 310/358/325
f 301/351/326 318/359/326 302/353/326
f 295/354/327 310/358/327 311/360/327
f 303/355/328 318/359/328 319/361/328
f 295/354/329 312/362/329 296/339/329
f 303/355/330 320/363/330 304/341/330
f 297/340/331 312/362/331 313/364/331
f 305/342/332 320/363/332 321/365/332
f 297/340/333 314/366/333 298/343/333
f 305/342/334 322/367/334 306/344/334
f 299/345/335 314/366/335 315/368/335
f 306/344/336 323/369/336 307/346/336
f 300/347/337 315/368/337 316/370/337
f 293/349/338 82/371/338 309/357/338
f 308/372/339 307/346/339 323/369/339
f 321/365/340 335/373/340 336/374/340
f 313/364/341 329/375/341 314/366/341
f 321/365/342 337/376/342 322/367/342
f 315/368/343 329/375/343 330/377/343
f 323/369/344 337/376/344 338/378/345
f 316/370/346 330/377/346 331/379/346
f 309/357/347 82/380/347 324/381/347
f 308/382/348 323/369/348 338/378/348
f 316/370/349 332/383/349 317/356/349
f 309/357/350 325/384/350 310/358/350
f 317/356/351 333/385/351 318/359/351
f 310/358/352 326/386/353 311/360/353
f 319/361/354 333/385/354 334/387/354
f 311/360/355 327/388/355 312/362/355
f 319/361/356 335/373/356 320/363/356
f 313/364/357 327/388/357 328/389/357
f 324/381/358 340/390/358 325/384/358
f 332/383/359 348/391/359 333/385/359
f 326/386/360 340/390/360 341/392/360
f 334/387/361 348/391/361 349/393/361
f 326/386/362 342/394/362 327/388/362
f 334/387/363 350/395/363 335/373/363
f 328/389/364 342/394/364 343/396/364
f 336/374/365 350/395/365 351/397/365
f 328/389/366 344/398/366 329/375/366
f 336/374/367 352/399/367 337/376/367
f 330/377/368 344/398/368 345/400/368
f 338/378/369 352/399/369 353/401/369
f 331/379/370 345/400/370 346/402/370
f 324/381/371 82/403/371 339/404/371
f 308/405/372 338/378/372 353/401/372
f 331/379/373 347/406/373 332/383/373
f 343/396/374 359/407/374 344/398/374
f 351/397/375 367/408/375 352/399/375
f 345/400/376 359/407/376 360/409/376
f 353/401/377 367/408/377 368/410/377
f 346/402/378 360/409/378 361/411/378
f 339/404/379 82/412/379 354/413/379
f 308/414/380 353/401/380 368/410/380
f 346/402/381 362/415/381 347/406/381
f 339/404/382 355/416/382 340/390/382
f 347/406/383 363/417/383 348/391/383
f 341/392/384 355/416/384 356/418/384
f 349/393/385 363/417/385 364/419/385
f 341/392/386 357/420/386 342/394/386
f 349/393/387 365/421/387 350/395/387
f 343/396/388 357/420/388 358/422/388
f 351/397/389 365/421/389 366/423/389
f 362/424/390 378/425/390 363/426/390
f 356/427/391 370/428/391 371/429/391
f 364/430/392 378/425/392 379/431/392
f 356/427/393 372/432/393 357/433/393
f 364/430/394 380/434/394 365/435/394
f 358/436/395 372/432/395 373/437/395
f 366/438/396 380/434/396 381/439/396
f 358/436/397 374/440/397 359/441/397
f 366/438/398 382/442/398 367/443/398
f 360/444/399 374/440/399 375/445/399
f 367/443/400 383/446/400 368/447/400
f 361/448/401 375/445/401 376/449/401
f 354/450/402 82/451/402 369/452/402
f 308/453/403 368/447/403 383/446/403
f 361/448/404 377/454/404 362/424/405
f 355/455/406 369/452/406 370/428/406
f 381/439/407 397/456/407 382/442/407
f 375/445/408 389/457/408 390/458/408
f 382/442/409 398/459/409 383/446/409
f 376/449/410 390/458/410 391/460/410
f 369/452/411 82/461/411 384/462/411
f 308/463/412 383/446/412 398/459/412
f 376/449/413 392/464/413 377/454/413
f 370/428/414 384/462/414 385/465/414
f 377/454/415 393/466/415 378/425/415
f 371/429/416 385/465/416 386/467/416
f 379/431/417 393/466/417 394/468/417
f 371/429/418 387/469/418 372/432/418
f 379/431/419 395/470/419 380/434/419
f 373/437/420 387/469/420 388/471/420
f 381/439/421 395/470/421 396/472/421
f 373/437/422 389/457/422 374/440/422
f 394/468/423 408/473/423 409/474/423
f 386/467/424 402/475/424 387/469/424
f 394/468/425 410/476/425 395/470/425
f 388/471/426 402/475/426 403/477/426
f 396/472/427 410/476/427 411/478/427
f 388/471/428 404/479/428 389/457/428
f 396/472/429 412/480/430 397/456/430
f 390/458/431 404/479/431 405/481/431
f 398/459/432 412/480/432 413/482/432
f 391/460/433 405/481/433 406/483/433
f 384/462/434 82/484/434 399/485/434
f 308/486/435 398/459/435 413/482/435
f 391/460/436 407/487/436 392/464/436
f 384/462/437 400/488/437 385/465/437
f 392/464/438 408/473/438 393/466/438
f 386/467/439 400/488/440 401/489/439
f 412/480/441 428/490/441 413/482/441
f 406/483/442 420/491/442 421/492/442
f 399/485/443 82/493/443 414/494/443
f 308/495/444 413/482/444 428/490/444
f 406/483/445 422/496/445 407/487/445
f 399/485/446 415/497/446 400/488/446
f 407/487/447 423/498/447 408/473/447
f 401/489/448 415/497/448 416/499/448
f 409/474/449 423/498/449 424/500/449
f 401/489/450 417/501/450 402/475/450
f 409/474/451 425/502/451 410/476/451
f 403/477/452 417/501/452 418/503/452
f 411/478/453 425/502/453 426/504/453
f 403/477/454 419/505/454 404/479/454
f 411/478/455 427/506/455 412/480/455
f 405/481/456 419/505/456 420/491/456
f 416/499/457 432/507/457 417/501/457
f 424/500/458 440/508/458 425/502/458
f 418/503/459 432/507/459 433/509/459
f 426/504/460 440/508/460 441/510/460
f 418/503/461 434/511/461 419/505/461
f 426/504/462 442/512/462 427/506/462
f 420/491/463 434/511/463 435/513/463
f 428/490/464 442/512/464 443/514/464
f 421/492/465 435/513/465 436/515/465
f 414/494/466 82/516/466 429/517/466
f 308/518/467 428/490/467 443/514/467
f 421/492/468 437/519/468 422/496/468
f 414/494/469 430/520/469 415/497/469
f 422/496/470 438/521/470 423/498/470
f 416/499/471 430/520/471 431/522/471
f 424/500/472 438/521/472 439/523/472
f 436/515/473 450/524/473 451/525/473
f 429/517/474 82/526/474 444/527/474
f 308/528/475 443/514/475 458/529/475
f 436/515/476 452/530/476 437/519/476
f 430/520/477 444/527/477 445/531/477
f 437/519/478 453/532/478 438/521/478
f 431/522/479 445/531/479 446/533/480
f 439/523/481 453/532/481 454/534/481
f 431/522/482 447/535/482 432/507/482
f 439/523/483 455/536/483 440/508/483
f 433/509/484 447/535/484 448/537/484
f 441/510/485 455/536/485 456/538/485
f 433/509/486 449/539/486 434/511/486
f 441/510/487 457/540/487 442/512/487
f 435/513/488 449/539/488 450/524/488
f 442/512/489 458/529/489 443/514/489
f 454/534/490 470/541/490 455/536/490
f 448/537/491 462/542/491 463/543/491
f 456/538/492 470/541/492 471/544/492
f 448/537/493 464/545/493 449/539/493
f 456/538/494 472/546/494 457/540/494
f 450/524/495 464/545/495 465/547/495
f 458/529/496 472/546/496 473/548/496
f 451/525/497 465/547/497 466/549/497
f 444/527/498 82/550/498 459/551/498
f 308/552/499 458/529/499 473/548/499
f 451/525/500 467/553/500 452/530/500
f 444/527/501 460/554/501 445/531/501
f 452/530/502 468/555/502 453/532/502
f 446/533/503 460/554/503 461/556/503
f 454/534/504 468/555/504 469/557/504
f 446/533/505 462/542/505 447/535/505
f 459/551/506 82/558/506 474/4/506
f 308/559/507 473/548/507 482/8/507
f 466/549/508 5/11/508 467/553/508
f 459/551/509 475/12/509 460/554/509
f 467/553/510 478/15/510 468/555/510
f 461/556/511 475/12/511 1/16/511
f 468/555/512 6/19/512 469/557/512
f 462/542/513 1/16/513 476/20/513
f 469/557/514 479/22/514 470/541/514
f 463/543/515 476/20/515 2/25/515
f 471/544/516 479/22/516 480/27/516
f 464/545/517 2/25/517 477/28/517
f 471/544/518 481/31/518 472/546/518
f 465/547/519 477/28/519 3/1/519
f 472/546/520 482/8/520 473/548/520
f 466/549/521 3/1/521 4/3/521
f 3/1/1 13/32/1 14/2/1
f 4/3/5 14/2/522 15/10/5
f 475/12/6 474/4/6 7/6/6
f 5/11/7 15/10/7 16/14/7
f 1/16/8 475/12/8 8/13/8
f 478/15/9 16/14/9 17/18/9
f 476/20/10 1/16/10 9/17/10
f 479/22/11 6/19/11 17/18/11
f 476/20/12 10/21/12 11/24/12
f 479/22/13 18/23/13 19/26/13
f 477/28/14 2/25/14 11/24/14
f 480/27/15 19/26/15 20/30/15
f 3/1/16 477/28/16 12/29/16
f 481/31/17 20/30/17 21/9/17
f 13/32/18 12/29/18 27/33/18
f 20/30/19 35/49/19 36/35/19
f 13/32/20 28/34/20 29/36/20
f 14/2/23 29/36/23 30/40/23
f 7/6/24 22/38/24 23/41/24
f 15/10/25 30/40/25 31/42/25
f 8/13/26 23/41/26 24/43/26
f 17/18/27 16/14/27 31/42/27
f 9/17/28 24/43/28 25/45/28
f 18/23/29 17/18/29 32/44/29
f 10/21/30 25/45/30 26/47/30
f 19/26/31 18/23/31 33/46/31
f 11/24/32 26/47/32 27/33/32
f 20/30/33 19/26/33 34/48/33
f 32/44/34 31/42/34 46/50/34
f 24/43/35 39/66/35 40/52/35
f 33/46/36 32/44/36 47/51/36
f 25/45/37 40/52/37 41/54/37
f 34/48/38 33/46/38 48/53/38
f 26/47/39 41/54/39 42/56/39
f 35/49/40 34/48/40 49/55/40
f 28/34/41 27/33/41 42/56/41
f 36/35/42 35/49/42 50/57/42
f 29/36/43 28/34/43 43/58/43
f 29/36/46 44/60/46 45/64/46
f 22/38/47 37/62/47 38/65/47
f 30/40/48 45/64/48 46/50/48
f 23/41/49 38/65/49 39/66/49
f 51/59/51 50/57/51 65/67/51
f 44/60/52 43/58/52 58/69/52
f 44/60/55 59/70/55 60/74/55
f 37/62/56 52/72/56 53/75/56
f 45/64/57 60/74/57 61/76/57
f 38/65/58 53/75/58 54/77/58
f 47/51/59 46/50/59 61/76/59
f 39/66/60 54/77/60 55/79/60
f 47/51/61 62/78/61 63/80/61
f 41/54/62 40/52/62 55/79/62
f 49/55/63 48/53/63 63/80/63
f 41/54/64 56/81/64 57/83/64
f 50/57/65 49/55/65 64/82/65
f 43/58/66 42/56/66 57/83/66
f 54/77/67 69/99/67 70/84/67
f 62/78/68 77/100/68 78/85/68
f 56/81/69 55/79/69 70/84/69
f 64/82/70 63/80/70 78/85/70
f 56/81/71 71/86/71 72/88/71
f 64/82/72 79/87/72 80/89/72
f 58/69/73 57/83/73 72/88/73
f 65/67/74 80/89/74 81/91/74
f 59/70/75 58/69/75 73/90/75
f 59/70/78 74/92/78 75/96/78
f 53/75/79 52/72/79 67/94/79
f 60/74/80 75/96/80 76/98/80
f 54/77/81 53/75/81 68/97/81
f 62/78/82 61/76/82 76/98/82
f 74/92/83 73/90/83 89/101/83
f 74/92/86 90/102/86 91/107/86
f 67/94/87 83/104/87 84/108/87
f 75/96/88 91/107/88 92/109/88
f 68/97/89 84/108/89 85/110/89
f 77/100/90 76/98/90 92/109/90
f 69/99/91 85/110/91 86/112/91
f 77/100/92 93/111/92 94/113/92
f 71/86/93 70/84/93 86/112/93
f 79/87/94 78/85/94 94/113/94
f 71/86/95 87/114/95 88/116/95
f 80/89/96 79/87/96 95/115/96
f 73/90/97 72/88/97 88/116/97
f 81/91/98 80/89/98 96/117/98
f 93/111/99 108/134/99 109/118/99
f 87/114/100 86/112/100 101/119/100
f 95/115/101 94/113/101 109/118/101
f 87/114/102 102/120/102 103/122/102
f 95/115/103 110/121/103 111/123/103
f 89/101/104 88/116/104 103/122/104
f 96/117/105 111/123/105 112/125/105
f 90/102/106 89/101/106 104/124/106
f 90/102/109 105/126/109 106/130/109
f 83/104/110 98/128/110 99/131/110
f 91/107/111 106/130/111 107/132/111
f 85/110/112 84/108/112 99/131/112
f 93/111/113 92/109/113 107/132/113
f 85/110/114 100/133/114 101/119/114
f 105/126/116 120/149/116 121/137/116
f 98/128/117 113/151/117 114/138/117
f 106/130/118 121/137/118 122/139/118
f 99/131/119 114/138/119 115/140/119
f 108/134/120 107/132/120 122/139/120
f 100/133/121 115/140/121 116/142/121
f 108/134/122 123/141/122 124/143/122
f 102/120/123 101/119/123 116/142/123
f 110/121/124 109/118/124 124/143/124
f 102/120/125 117/144/125 118/146/125
f 111/123/126 110/121/126 125/145/126
f 104/124/127 103/122/127 118/146/127
f 111/123/128 126/147/128 127/136/128
f 105/126/129 104/124/129 119/148/129
f 125/145/131 124/143/131 139/152/131
f 117/144/132 132/168/132 133/154/132
f 125/145/133 140/153/133 141/155/133
f 119/148/134 118/146/134 133/154/134
f 126/147/135 141/155/135 142/157/135
f 120/149/136 119/148/523 134/156/136
f 120/149/139 135/158/139 136/162/139
f 114/138/141 113/151/141 128/160/141
f 121/137/142 136/162/142 137/164/142
f 115/140/143 114/138/143 129/163/143
f 123/141/144 122/139/144 137/164/144
f 115/140/145 130/165/145 131/167/145
f 123/141/146 138/166/146 139/152/146
f 117/144/147 116/142/147 131/167/147
f 128/160/148 143/183/148 144/169/148
f 136/162/149 151/185/149 152/170/149
f 129/163/150 144/169/150 145/171/150
f 138/166/151 137/164/151 152/170/151
f 130/165/152 145/171/152 146/173/152
f 138/166/153 153/172/153 154/174/153
f 132/168/154 131/167/154 146/173/154
f 140/153/155 139/152/155 154/174/155
f 132/168/156 147/175/156 148/177/156
f 141/155/157 140/153/157 155/176/157
f 134/156/158 133/154/158 148/177/158
f 141/155/159 156/178/159 157/180/159
f 135/158/160 134/156/160 149/179/160
f 135/158/163 150/181/163 151/185/163
f 147/175/164 162/202/164 163/186/164
f 156/178/165 155/176/165 170/187/165
f 149/179/166 148/177/166 163/186/166
f 157/180/167 156/178/167 171/188/167
f 150/181/168 149/179/168 164/189/168
f 150/181/171 165/191/171 166/195/171
f 143/183/172 158/193/172 159/196/172
f 151/185/173 166/195/173 167/197/173
f 144/169/174 159/196/174 160/198/174
f 153/172/175 152/170/175 167/197/175
f 145/171/176 160/198/176 161/200/176
f 153/172/177 168/199/177 169/201/177
f 147/175/178 146/173/178 161/200/178
f 155/176/179 154/174/179 169/201/179
f 166/195/180 181/218/180 182/203/180
f 159/196/181 174/219/181 175/204/181
f 168/199/182 167/197/182 182/203/182
f 160/198/183 175/204/183 176/206/183
f 168/199/184 183/205/184 184/207/184
f 162/202/185 161/200/185 176/206/185
f 170/187/186 169/201/186 184/207/186
f 162/202/187 177/208/187 178/210/187
f 171/188/188 170/187/188 185/209/188
f 164/189/189 163/186/189 178/210/189
f 172/190/190 171/188/190 186/211/190
f 165/191/191 164/189/191 179/212/191
f 165/191/194 180/214/194 181/218/194
f 158/193/195 173/216/195 174/219/195
f 185/209/196 200/236/196 201/220/196
f 179/212/197 178/210/197 193/221/197
f 186/211/198 201/220/198 202/223/198
f 180/214/199 179/212/199 194/222/199
f 180/214/202 195/224/202 196/228/202
f 174/219/203 173/216/203 188/226/203
f 181/218/204 196/228/204 197/230/204
f 175/204/205 174/219/205 189/229/205
f 183/205/206 182/203/206 197/230/206
f 175/204/207 190/231/207 191/233/207
f 183/205/208 198/232/208 199/234/208
f 177/208/209 176/206/209 191/233/209
f 185/209/210 184/207/210 199/234/210
f 177/208/211 192/235/211 193/221/211
f 189/229/212 204/253/212 205/237/212
f 198/232/213 197/230/213 212/238/213
f 190/231/214 205/237/214 206/240/214
f 198/232/215 213/239/215 214/241/215
f 192/235/216 191/233/216 206/240/216
f 200/236/217 199/234/217 214/241/217
f 192/235/218 207/242/218 208/244/218
f 201/220/219 200/236/219 215/243/219
f 194/222/220 193/221/220 208/244/220
f 202/223/221 201/220/221 216/245/221
f 195/224/222 194/222/222 209/246/222
f 195/224/225 210/248/225 211/252/225
f 188/226/226 203/250/226 204/253/226
f 196/228/227 211/252/227 212/238/227
f 209/246/228 208/244/228 223/254/228
f 217/247/229 216/245/229 231/256/229
f 210/248/230 209/246/230 224/255/230
f 210/248/233 225/258/233 226/262/233
f 203/250/234 218/260/234 219/263/234
f 211/252/235 226/262/235 227/264/235
f 204/253/236 219/263/236 220/265/236
f 213/239/237 212/238/237 227/264/237
f 205/237/238 220/265/238 221/267/238
f 213/239/239 228/266/239 229/268/239
f 207/242/240 206/240/240 221/267/240
f 215/243/241 214/241/241 229/268/241
f 207/242/242 222/269/242 223/254/242
f 216/245/243 215/243/243 230/270/243
f 228/266/244 227/264/244 242/271/244
f 220/265/245 235/287/245 236/273/245
f 228/266/246 243/272/246 244/274/246
f 222/269/247 221/267/247 236/273/247
f 230/270/248 229/268/248 244/274/248
f 222/269/249 237/275/249 238/277/249
f 231/256/250 230/270/250 245/276/250
f 224/255/251 223/254/251 238/277/251
f 231/256/252 246/278/252 247/280/252
f 225/258/253 224/255/524 239/279/253
f 225/258/256 240/281/256 241/285/256
f 219/263/257 218/260/257 233/283/257
f 226/262/258 241/285/258 242/271/258
f 219/263/259 234/286/259 235/287/259
f 246/278/260 261/304/260 262/288/260
f 240/281/261 239/279/525 254/289/261
f 240/281/264 255/290/526 256/294/264
f 234/286/265 233/283/265 248/292/265
f 241/285/266 256/294/266 257/296/266
f 235/287/267 234/286/267 249/295/267
f 243/272/268 242/271/268 257/296/268
f 235/287/269 250/297/269 251/299/269
f 243/272/270 258/298/270 259/300/270
f 237/275/271 236/273/271 251/299/271
f 245/276/272 244/274/272 259/300/272
f 237/275/273 252/301/273 253/303/273
f 245/276/274 260/302/274 261/304/274
f 239/279/275 238/277/275 253/303/275
f 258/298/276 273/321/276 274/305/276
f 252/301/277 251/299/277 266/306/277
f 260/302/278 259/300/278 274/305/278
f 252/301/279 267/307/279 268/309/279
f 261/304/280 260/302/280 275/308/280
f 254/289/281 253/303/281 268/309/281
f 261/304/282 276/310/282 277/312/282
f 255/290/283 254/289/283 269/311/283
f 255/290/286 270/313/286 271/317/286
f 249/295/287 248/292/287 263/315/287
f 256/294/288 271/317/288 272/319/288
f 249/295/289 264/318/289 265/320/289
f 258/298/290 257/296/290 272/319/290
f 250/297/291 265/320/291 266/306/291
f 270/313/294 285/338/294 286/326/294
f 263/315/295 278/323/295 279/327/295
f 271/317/296 286/326/296 287/328/296
f 264/318/297 279/327/297 280/329/297
f 273/321/298 272/319/298 287/328/298
f 265/320/299 280/329/299 281/331/299
f 273/321/300 288/330/300 289/332/300
f 267/307/301 266/306/301 281/331/301
f 275/308/302 274/305/302 289/332/302
f 267/307/303 282/333/303 283/335/303
f 275/308/304 290/334/304 291/336/304
f 269/311/305 268/309/305 283/335/305
f 276/310/306 291/336/306 292/325/306
f 270/313/307 269/311/307 284/337/307
f 282/333/308 281/331/308 296/339/308
f 290/334/309 289/332/309 304/341/309
f 282/333/310 297/340/310 298/343/310
f 290/334/311 305/342/311 306/344/311
f 284/337/312 283/335/312 298/343/312
f 292/325/313 291/336/313 306/344/313
f 285/338/314 284/337/314 299/345/314
f 285/338/317 300/347/317 301/351/317
f 278/323/318 293/349/318 294/352/318
f 286/326/319 301/351/319 302/353/319
f 280/329/320 279/327/320 294/352/320
f 288/330/321 287/328/321 302/353/321
f 280/329/322 295/354/322 296/339/322
f 288/330/323 303/355/323 304/341/323
f 300/347/324 316/370/324 317/356/324
f 294/352/325 293/349/325 309/357/325
f 301/351/326 317/356/326 318/359/326
f 295/354/327 294/352/327 310/358/327
f 303/355/328 302/353/328 318/359/328
f 295/354/329 311/360/329 312/362/329
f 303/355/330 319/361/330 320/363/330
f 297/340/331 296/339/331 312/362/331
f 305/342/332 304/341/332 320/363/332
f 297/340/333 313/364/333 314/366/333
f 305/342/334 321/365/334 322/367/334
f 299/345/335 298/343/335 314/366/335
f 306/344/336 322/367/336 323/369/336
f 300/347/337 299/345/337 315/368/337
f 321/365/340 320/363/340 335/373/340
f 313/364/341 328/389/341 329/375/341
f 321/365/342 336/374/342 337/376/342
f 315/368/343 314/366/343 329/375/343
f 323/369/344 322/367/344 337/376/344
f 316/370/346 315/368/346 330/377/346
f 316/370/349 331/379/349 332/383/349
f 309/357/350 324/381/350 325/384/350
f 317/356/351 332/383/351 333/385/351
f 310/358/352 325/384/352 326/386/353
f 319/361/354 318/359/354 333/385/354
f 311/360/355 326/386/355 327/388/355
f 319/361/356 334/387/356 335/373/356
f 313/364/357 312/362/357 327/388/357
f 324/381/358 339/404/358 340/390/358
f 332/383/359 347/406/359 348/391/359
f 326/386/360 325/384/360 340/390/360
f 334/387/361 333/385/361 348/391/361
f 326/386/362 341/392/362 342/394/362
f 334/387/363 349/393/363 350/395/363
f 328/389/364 327/388/364 342/394/364
f 336/374/365 335/373/365 350/395/365
f 328/389/366 343/396/366 344/398/366
f 336/374/367 351/397/367 352/399/367
f 330/377/368 329/375/368 344/398/368
f 338/378/369 337/376/369 352/399/369
f 331/379/370 330/377/370 345/400/370
f 331/379/373 346/402/373 347/406/373
f 343/396/374 358/422/374 359/407/374
f 351/397/375 366/423/375 367/408/375
f 345/400/376 344/398/376 359/407/376
f 353/401/377 352/399/377 367/408/377
f 346/402/378 345/400/378 360/409/378
f 346/402/381 361/411/381 362/415/381
f 339/404/382 354/413/382 355/416/382
f 347/406/383 362/415/383 363/417/383
f 341/392/384 340/390/384 355/416/384
f 349/393/385 348/391/385 363/417/385
f 341/392/386 356/418/386 357/420/386
f 349/393/387 364/419/387 365/421/387
f 343/396/388 342/394/388 357/420/388
f 351/397/389 350/395/389 365/421/389
f 362/424/390 377/454/390 378/425/390
f 356/427/391 355/455/391 370/428/391
f 364/430/392 363/426/392 378/425/392
f 356/427/393 371/429/393 372/432/393
f 364/430/394 379/431/394 380/434/394
f 358/436/395 357/433/395 372/432/395
f 366/438/396 365/435/396 380/434/396
f 358/436/397 373/437/397 374/440/397
f 366/438/398 381/439/398 382/442/398
f 360/444/399 359/441/399 374/440/399
f 367/443/400 382/442/400 383/446/400
f 361/448/401 360/444/527 375/445/401
f 361/448/404 376/449/404 377/454/404
f 355/455/406 354/450/406 369/452/406
f 381/439/407 396/472/407 397/456/407
f 375/445/408 374/440/408 389/457/408
f 382/442/409 397/456/409 398/459/409
f 376/449/410 375/445/410 390/458/410
f 376/449/413 391/460/413 392/464/413
f 370/428/414 369/452/414 384/462/414
f 377/454/415 392/464/415 393/466/415
f 371/429/416 370/428/416 385/465/416
f 379/431/417 378/425/417 393/466/417
f 371/429/418 386/467/418 387/469/418
f 379/431/419 394/468/419 395/470/419
f 373/437/420 372/432/420 387/469/420
f 381/439/421 380/434/421 395/470/421
f 373/437/422 388/471/422 389/457/422
f 394/468/423 393/466/423 408/473/423
f 386/467/424 401/489/424 402/475/424
f 394/468/425 409/474/425 410/476/425
f 388/471/426 387/469/426 402/475/426
f 396/472/427 395/470/427 410/476/427
f 388/471/428 403/477/428 404/479/428
f 396/472/429 411/478/429 412/480/430
f 390/458/431 389/457/431 404/479/431
f 398/459/432 397/456/432 412/480/432
f 391/460/433 390/458/433 405/481/433
f 391/460/436 406/483/436 407/487/436
f 384/462/437 399/485/437 400/488/437
f 392/464/438 407/487/438 408/473/438
f 386/467/439 385/465/440 400/488/440
f 412/480/441 427/506/441 428/490/441
f 406/483/442 405/481/442 420/491/442
f 406/483/445 421/492/445 422/496/445
f 399/485/446 414/494/446 415/497/446
f 407/487/447 422/496/447 423/498/447
f 401/489/448 400/488/448 415/497/448
f 409/474/449 408/473/449 423/498/449
f 401/489/450 416/499/450 417/501/450
f 409/474/451 424/500/451 425/502/451
f 403/477/452 402/475/452 417/501/452
f 411/478/453 410/476/453 425/502/453
f 403/477/454 418/503/454 419/505/454
f 411/478/455 426/504/455 427/506/455
f 405/481/456 404/479/456 419/505/456
f 416/499/457 431/522/457 432/507/457
f 424/500/458 439/523/458 440/508/458
f 418/503/459 417/501/459 432/507/459
f 426/504/460 425/502/460 440/508/460
f 418/503/461 433/509/461 434/511/461
f 426/504/462 441/510/462 442/512/462
f 420/491/463 419/505/463 434/511/463
f 428/490/464 427/506/464 442/512/464
f 421/492/465 420/491/465 435/513/465
f 421/492/468 436/515/468 437/519/468
f 414/494/469 429/517/469 430/520/469
f 422/496/470 437/519/470 438/521/470
f 416/499/471 415/497/471 430/520/471
f 424/500/472 423/498/472 438/521/472
f 436/515/473 435/513/473 450/524/473
f 436/515/476 451/525/476 452/530/476
f 430/520/477 429/517/477 444/527/477
f 437/519/478 452/530/478 453/532/478
f 431/522/479 430/520/479 445/531/479
f 439/523/481 438/521/481 453/532/481
f 431/522/482 446/533/482 447/535/482
f 439/523/483 454/534/483 455/536/483
f 433/509/484 432/507/484 447/535/484
f 441/510/485 440/508/485 455/536/485
f 433/509/486 448/537/486 449/539/486
f 441/510/487 456/538/528 457/540/487
f 435/513/488 434/511/488 449/539/488
f 442/512/489 457/540/489 458/529/489
f 454/534/490 469/557/490 470/541/490
f 448/537/491 447/535/491 462/542/491
f 456/538/492 455/536/492 470/541/492
f 448/537/493 463/543/493 464/545/493
f 456/538/494 471/544/494 472/546/494
f 450/524/495 449/539/495 464/545/495
f 458/529/496 457/540/496 472/546/496
f 451/525/497 450/524/497 465/547/497
f 451/525/500 466/549/500 467/553/500
f 444/527/501 459/551/501 460/554/501
f 452/530/502 467/553/502 468/555/502
f 446/533/503 445/531/503 460/554/503
f 454/534/504 453/532/504 468/555/504
f 446/533/505 461/556/505 462/542/505
f 466/549/508 4/3/508 5/11/508
f 459/551/509 474/4/509 475/12/509
f 467/553/510 5/11/510 478/15/510
f 461/556/511 460/554/511 475/12/511
f 468/555/512 478/15/512 6/19/512
f 462/542/513 461/556/513 1/16/513
f 469/557/514 6/19/514 479/22/514
f 463/543/515 462/542/515 476/20/515
f 471/544/516 470/541/516 479/22/516
f 464/545/517 463/543/517 2/25/517
f 471/544/518 480/27/518 481/31/518
f 465/547/519 464/545/519 477/28/519
f 472/546/520 481/31/520 482/8/520
f 466/549/521 465/547/521 3/1/521
