# Blender 4.4.0
# www.blender.org
mtllib ceiling_basic.mtl
o Ceiling_Basic
v -2.000000 3.000000 6.000000
v 2.000000 3.000000 6.000000
v 2.000000 3.000000 2.000000
v -2.000000 3.000000 2.000000
v -2.000000 3.200000 6.000000
v 2.000000 3.200000 6.000000
v 2.000000 3.200000 2.000000
v -2.000000 3.200000 2.000000
vn -0.0000 -1.0000 -0.0000
vn -0.0000 1.0000 -0.0000
vn -0.0000 -0.0000 1.0000
vn 1.0000 -0.0000 -0.0000
vn -0.0000 -0.0000 -1.0000
vn -1.0000 -0.0000 -0.0000
s 0
usemtl Ceiling_Material
f 3//1 1//1 4//1
f 6//2 8//2 5//2
f 2//3 5//3 1//3
f 3//4 6//4 2//4
f 4//5 7//5 3//5
f 1//6 8//6 4//6
f 3//1 2//1 1//1
f 6//2 7//2 8//2
f 2//3 6//3 5//3
f 3//4 7//4 6//4
f 4//5 8//5 7//5
f 1//6 5//6 8//6
